<?xml version="1.0" encoding="utf-8"?>
<svg width="305px" height="252px" viewBox="0 0 305 252" version="1.1" xmlns:xlink="http://www.w3.org/1999/xlink" xmlns="http://www.w3.org/2000/svg">
  <desc>Created with Lunacy</desc>
  <defs>
    <linearGradient x1="0.50000876" y1="0.9999849" x2="0.50000876" y2="0" id="gradient_1">
      <stop offset="0" stop-color="#808080" stop-opacity="0.2509804" />
      <stop offset="0.54" stop-color="#808080" stop-opacity="0.12156863" />
      <stop offset="1" stop-color="#808080" stop-opacity="0.101960786" />
    </linearGradient>
    <linearGradient x1="1834.21" y1="806.87" x2="1834.21" y2="194.98" id="gradient_2">
      <stop offset="0" stop-color="#808080" stop-opacity="0.2509804" />
      <stop offset="0.54" stop-color="#808080" stop-opacity="0.12156863" />
      <stop offset="1" stop-color="#808080" stop-opacity="0.101960786" />
    </linearGradient>
  </defs>
  <g id="undraw_events_2p66">
    <g id="undraw_events_2p66">
      <path d="M284.854 139.239C273.139 158.119 275.334 183.84 280.479 204.12C282.201 210.91 284.184 218.078 282.712 225.678C280.912 234.97 274.349 242.267 267.707 246.446C255.597 254.045 241.77 253.834 231.7 245.889C223.005 239.026 217.279 227.056 208.401 220.561C193.556 209.689 173.172 216.279 155.472 226.439C142.955 233.61 129.178 242.736 117.608 237.569C109.469 233.941 104.394 223.705 102.025 212.566C100.881 207.188 100.19 201.313 97.5682 197.216C96.0079 194.781 93.8634 193.151 91.6398 191.813C71.3469 179.623 43.8907 189.815 24.321 176.011C11.103 166.69 3.58907 147.439 1.11918 126.853C-1.35071 106.268 0.680157 84.2411 3.22269 62.5542C5.03247 47.1355 7.48026 30.6407 15.6037 18.1012C24.1978 4.83796 37.7443 -1.09351 49.519 0.165157C61.2936 1.42383 71.5175 8.85627 80.3295 17.9407C91.3429 29.2939 101.276 43.7938 115.53 47.4565C125.239 49.9518 135.842 47.0632 146.167 45.43C163.406 42.6987 180.404 43.4822 197.283 44.5081C213.442 45.4898 229.698 46.7107 244.754 52.3747C255.408 56.3867 263.585 64.738 273.528 70.1692C280.009 73.7092 287.32 74.1591 293.359 78.8792C300.797 84.6942 307.234 95.4275 304.256 108.996C301.417 121.904 291.069 129.22 284.854 139.239Z" id="Shape" fill="#0595D4" fill-opacity="0.1" fill-rule="evenodd" stroke="none" />
      <path d="M0 66C0 66 32.4107 38.9826 39.6181 25.3605C46.8255 11.7385 56 0 56 0" transform="translate(211 31)" id="Shape" fill="none" fill-rule="evenodd" stroke="#535461" stroke-width="2" />
      <path d="M14 2.90402L0 0C0 0 3.30373 13.5855 14 2.90402Z" transform="translate(246 60)" id="Shape" fill="#6C63FF" fill-rule="evenodd" stroke="none" />
      <path d="M1.87309 0L9 10.9776C9 10.9776 -4.93347 12.0127 1.87309 0Z" transform="translate(238 47)" id="Shape" fill="#6696BB" fill-rule="evenodd" stroke="none" />
      <path d="M11 2.54721L0 0C0 0 6.90909 13.8823 11 2.54721Z" transform="translate(254 49)" id="Shape" fill="#6C63FF" fill-rule="evenodd" stroke="none" />
      <path d="M1.13801 0L7 7.96505C7 7.96505 -3.37695 8.98541 1.13801 0Z" transform="translate(245 40)" id="Shape" fill="#6696BB" fill-rule="evenodd" stroke="none" />
      <path d="M0 0C0 0 9.60104 0.531108 10.7306 1.5966C11.8601 2.6621 9.29889 8.90753 5.64767 7.88794C1.99645 6.86834 0 0 0 0Z" transform="translate(261 38)" id="Shape" fill="#6696BB" fill-rule="evenodd" stroke="none" />
      <path d="M3.8885 0C3.8885 0 8.15536 7.27265 7.99562 8.65765C7.83589 10.0426 1.49242 11.5972 0.21144 6.3589C-1.06954 1.12064 3.8885 0 3.8885 0Z" transform="translate(252 27)" id="Shape" fill="#6696BB" fill-rule="evenodd" stroke="none" />
      <path d="M3.5 7C5.433 7 7 5.433 7 3.5C7 1.567 5.433 0 3.5 0C1.567 0 -6.21725e-15 1.567 -6.21725e-15 3.5C-6.21725e-15 5.433 1.567 7 3.5 7Z" transform="matrix(0.30113134 -0.9535827 0.9535827 0.30113134 263.10852 36.78357)" id="Oval" fill="#FFD037" fill-rule="evenodd" stroke="none" />
      <path d="M3.5 7C5.433 7 7 5.433 7 3.5C7 1.567 5.433 -4.9738e-14 3.5 -4.9738e-14C1.567 -4.9738e-14 0 1.567 0 3.5C0 5.433 1.567 7 3.5 7Z" transform="matrix(0.30113134 -0.9535827 0.9535827 0.30113134 258.10852 32.78357)" id="Oval" fill="#FFD037" fill-rule="evenodd" stroke="none" />
      <path d="M77.7071 76.4432C77.7071 76.4432 82.7992 61.166 50.5192 42.749C50.5192 42.749 17.7429 33.1081 21.0947 0C21.0947 0 -16.6889 27.9185 8.87815 63.482C34.4452 99.0454 56.5128 91.2832 56.5128 91.2832L77.7071 76.4432Z" transform="translate(32 125)" id="Shape" fill="#0595D4" fill-rule="evenodd" stroke="none" />
      <path d="M51 82C51 82 35.2771 65.1081 20.2064 58.5777C17.1959 57.2307 14.4296 55.3992 12.0189 53.1569C2.41077 44.4289 -1.77866 31.2589 0.698621 18.5565L4.32047 0" transform="translate(50 125)" id="Shape" fill="none" fill-rule="evenodd" stroke="#535461" stroke-width="2" />
      <path d="M0 0L180 0L180 209L0 209L0 0Z" transform="translate(62 9)" id="Rectangle-path" fill="url(#gradient_1)" fill-rule="evenodd" stroke="none" />
      <path d="M0 0L176 0L176 203L0 203L0 0Z" transform="translate(62 12)" id="Rectangle-path" fill="#F7F7FD" fill-rule="evenodd" stroke="none" />
      <path d="M0 0L44 0L44 5L0 5L0 0Z" transform="translate(74 37)" id="Rectangle-path" fill="#E2E2EC" fill-rule="evenodd" stroke="none" />
      <path d="M0 0L76 0L76 5L0 5L0 0Z" transform="translate(74 44)" id="Rectangle-path" fill="#E2E2EC" fill-rule="evenodd" stroke="none" />
      <path d="M0 0L32 0L32 27L0 27L0 0Z" transform="translate(199 32)" id="Rectangle-path" fill="#FFFFFF" fill-rule="evenodd" stroke="none" />
      <path d="M31.1111 0L31.1111 26.129L0 26.129L0 0L31.1111 0L31.1111 0ZM32 0L0 0L0 27L32 27L32 0Z" transform="translate(199 32)" id="Shape" fill="#E2E2EC" stroke="none" />
      <path d="M0 0L32 0L32 27L0 27L0 0Z" transform="translate(168 32)" id="Rectangle-path" fill="#FFFFFF" fill-rule="evenodd" stroke="none" />
      <path d="M31.1111 0L31.1111 26.129L0 26.129L0 0L31.1111 0L31.1111 0ZM32 0L0 0L0 27L32 27L32 0Z" transform="translate(167 32)" id="Shape" fill="#E2E2EC" stroke="none" />
      <path d="M0 0L32 0L32 27L0 27L0 0Z" transform="translate(199 60)" id="Rectangle-path" fill="#FFFFFF" fill-rule="evenodd" stroke="none" />
      <path d="M31.1111 0L31.1111 26.129L0 26.129L0 0L31.1111 0L31.1111 0ZM32 0L0 0L0 27L32 27L32 0Z" transform="translate(199 60)" id="Shape" fill="#E2E2EC" stroke="none" />
      <path d="M0 0L32 0L32 27L0 27L0 0Z" transform="translate(168 60)" id="Rectangle-path" fill="#FFFFFF" fill-rule="evenodd" stroke="none" />
      <path d="M31.1111 0L31.1111 26.129L0 26.129L0 0L31.1111 0L31.1111 0ZM32 0L0 0L0 27L32 27L32 0Z" transform="translate(167 60)" id="Shape" fill="#E2E2EC" stroke="none" />
      <path d="M0 0L32 0L32 27L0 27L0 0Z" transform="translate(135 60)" id="Rectangle-path" fill="#FFFFFF" fill-rule="evenodd" stroke="none" />
      <path d="M31.1111 0L31.1111 26.129L0 26.129L0 0L31.1111 0L31.1111 0ZM32 0L0 0L0 27L32 27L32 0Z" transform="translate(135 60)" id="Shape" fill="#E2E2EC" stroke="none" />
      <path d="M0 0L32 0L32 27L0 27L0 0Z" transform="translate(104 60)" id="Rectangle-path" fill="#FFFFFF" fill-rule="evenodd" stroke="none" />
      <path d="M31.1111 0L31.1111 26.129L0 26.129L0 0L31.1111 0L31.1111 0ZM32 0L0 0L0 27L32 27L32 0Z" transform="translate(103 60)" id="Shape" fill="#E2E2EC" stroke="none" />
      <path d="M0 0L32 0L32 27L0 27L0 0Z" transform="translate(72 60)" id="Rectangle-path" fill="#FFFFFF" fill-rule="evenodd" stroke="none" />
      <path d="M31.1111 0L31.1111 26.129L0 26.129L0 0L31.1111 0L31.1111 0ZM32 0L0 0L0 27L32 27L32 0Z" transform="translate(72 60)" id="Shape" fill="#E2E2EC" stroke="none" />
      <path d="M0 0L32 0L32 27L0 27L0 0Z" transform="translate(199 88)" id="Rectangle-path" fill="#FFFFFF" fill-rule="evenodd" stroke="none" />
      <path d="M31.1111 0L31.1111 26.129L0 26.129L0 0L31.1111 0L31.1111 0ZM32 0L0 0L0 27L32 27L32 0Z" transform="translate(199 88)" id="Shape" fill="#E2E2EC" stroke="none" />
      <path d="M0 0L32 0L32 27L0 27L0 0Z" transform="translate(168 88)" id="Rectangle-path" fill="#FFFFFF" fill-rule="evenodd" stroke="none" />
      <path d="M31.1111 0L31.1111 26.129L0 26.129L0 0L31.1111 0L31.1111 0ZM32 0L0 0L0 27L32 27L32 0Z" transform="translate(167 88)" id="Shape" fill="#E2E2EC" stroke="none" />
      <path d="M0 0L32 0L32 27L0 27L0 0Z" transform="translate(135 88)" id="Rectangle-path" fill="#FFFFFF" fill-rule="evenodd" stroke="none" />
      <path d="M31.1111 0L31.1111 26.129L0 26.129L0 0L31.1111 0L31.1111 0ZM32 0L0 0L0 27L32 27L32 0Z" transform="translate(135 88)" id="Shape" fill="#E2E2EC" stroke="none" />
      <path d="M0 0L32 0L32 27L0 27L0 0Z" transform="translate(104 88)" id="Rectangle-path" fill="#FFFFFF" fill-rule="evenodd" stroke="none" />
      <path d="M31.1111 0L31.1111 26.129L0 26.129L0 0L31.1111 0L31.1111 0ZM32 0L0 0L0 27L32 27L32 0Z" transform="translate(103 88)" id="Shape" fill="#E2E2EC" stroke="none" />
      <path d="M0 0L32 0L32 27L0 27L0 0Z" transform="translate(72 88)" id="Rectangle-path" fill="#FFFFFF" fill-rule="evenodd" stroke="none" />
      <path d="M31.1111 0L31.1111 26.129L0 26.129L0 0L31.1111 0L31.1111 0ZM32 0L0 0L0 27L32 27L32 0Z" transform="translate(72 88)" id="Shape" fill="#E2E2EC" stroke="none" />
      <path d="M0 0L32 0L32 27L0 27L0 0Z" transform="translate(199 116)" id="Rectangle-path" fill="#FFFFFF" fill-rule="evenodd" stroke="none" />
      <path d="M31.1111 0L31.1111 26.129L0 26.129L0 0L31.1111 0L31.1111 0ZM32 0L0 0L0 27L32 27L32 0Z" transform="translate(199 116)" id="Shape" fill="#E2E2EC" stroke="none" />
      <path d="M0 0L32 0L32 27L0 27L0 0Z" transform="translate(168 116)" id="Rectangle-path" fill="#FFFFFF" fill-rule="evenodd" stroke="none" />
      <path d="M31.1111 0L31.1111 26.129L0 26.129L0 0L31.1111 0L31.1111 0ZM32 0L0 0L0 27L32 27L32 0Z" transform="translate(167 116)" id="Shape" fill="#E2E2EC" stroke="none" />
      <path d="M0 0L32 0L32 27L0 27L0 0Z" transform="translate(135 116)" id="Rectangle-path" fill="#FFFFFF" fill-rule="evenodd" stroke="none" />
      <path d="M31.1111 0L31.1111 26.129L0 26.129L0 0L31.1111 0L31.1111 0ZM32 0L0 0L0 27L32 27L32 0Z" transform="translate(135 116)" id="Shape" fill="#E2E2EC" stroke="none" />
      <path d="M0 0L32 0L32 27L0 27L0 0Z" transform="translate(104 116)" id="Rectangle-path" fill="#FFFFFF" fill-rule="evenodd" stroke="none" />
      <path d="M31.1111 0L31.1111 26.129L0 26.129L0 0L31.1111 0L31.1111 0ZM32 0L0 0L0 27L32 27L32 0Z" transform="translate(103 116)" id="Shape" fill="#E2E2EC" stroke="none" />
      <path d="M0 0L32 0L32 27L0 27L0 0Z" transform="translate(72 116)" id="Rectangle-path" fill="#FFFFFF" fill-rule="evenodd" stroke="none" />
      <path d="M31.1111 0L31.1111 26.129L0 26.129L0 0L31.1111 0L31.1111 0ZM32 0L0 0L0 27L32 27L32 0Z" transform="translate(72 116)" id="Shape" fill="#E2E2EC" stroke="none" />
      <path d="M0 0L32 0L32 27L0 27L0 0Z" transform="translate(199 141)" id="Rectangle-path" fill="#FFFFFF" fill-rule="evenodd" stroke="none" />
      <path d="M31.1111 0L31.1111 26.129L0 26.129L0 0L31.1111 0L31.1111 0ZM32 0L0 0L0 27L32 27L32 0Z" transform="translate(199 141)" id="Shape" fill="#E2E2EC" stroke="none" />
      <path d="M0 0L32 0L32 27L0 27L0 0Z" transform="translate(168 141)" id="Rectangle-path" fill="#FFFFFF" fill-rule="evenodd" stroke="none" />
      <path d="M31.1111 0L31.1111 26.129L0 26.129L0 0L31.1111 0L31.1111 0ZM32 0L0 0L0 27L32 27L32 0Z" transform="translate(167 141)" id="Shape" fill="#E2E2EC" stroke="none" />
      <path d="M0 0L32 0L32 27L0 27L0 0Z" transform="translate(135 141)" id="Rectangle-path" fill="#FFFFFF" fill-rule="evenodd" stroke="none" />
      <path d="M31.1111 0L31.1111 26.129L0 26.129L0 0L31.1111 0L31.1111 0ZM32 0L0 0L0 27L32 27L32 0Z" transform="translate(135 141)" id="Shape" fill="#E2E2EC" stroke="none" />
      <path d="M0 0L32 0L32 27L0 27L0 0Z" transform="translate(104 141)" id="Rectangle-path" fill="#FFFFFF" fill-rule="evenodd" stroke="none" />
      <path d="M31.1111 0L31.1111 26.129L0 26.129L0 0L31.1111 0L31.1111 0ZM32 0L0 0L0 27L32 27L32 0Z" transform="translate(103 141)" id="Shape" fill="#E2E2EC" stroke="none" />
      <path d="M0 0L32 0L32 27L0 27L0 0Z" transform="translate(72 141)" id="Rectangle-path" fill="#FFFFFF" fill-rule="evenodd" stroke="none" />
      <path d="M31.1111 0L31.1111 26.129L0 26.129L0 0L31.1111 0L31.1111 0ZM32 0L0 0L0 27L32 27L32 0Z" transform="translate(72 141)" id="Shape" fill="#E2E2EC" stroke="none" />
      <path d="M0 0L32 0L32 27L0 27L0 0Z" transform="translate(199 170)" id="Rectangle-path" fill="#FFFFFF" fill-rule="evenodd" stroke="none" />
      <path d="M31.1111 0L31.1111 26.129L0 26.129L0 0L31.1111 0L31.1111 0ZM32 0L0 0L0 27L32 27L32 0Z" transform="translate(199 170)" id="Shape" fill="#E2E2EC" stroke="none" />
      <path d="M0 0L32 0L32 27L0 27L0 0Z" transform="translate(168 170)" id="Rectangle-path" fill="#FFFFFF" fill-rule="evenodd" stroke="none" />
      <path d="M31.1111 0L31.1111 26.129L0 26.129L0 0L31.1111 0L31.1111 0ZM32 0L0 0L0 27L32 27L32 0Z" transform="translate(167 170)" id="Shape" fill="#E2E2EC" stroke="none" />
      <path d="M0 0L32 0L32 27L0 27L0 0Z" transform="translate(135 170)" id="Rectangle-path" fill="#FFFFFF" fill-rule="evenodd" stroke="none" />
      <path d="M31.1111 0L31.1111 26.129L0 26.129L0 0L31.1111 0L31.1111 0ZM32 0L0 0L0 27L32 27L32 0Z" transform="translate(135 170)" id="Shape" fill="#E2E2EC" stroke="none" />
      <path d="M0 0L32 0L32 27L0 27L0 0Z" transform="translate(104 170)" id="Rectangle-path" fill="#FFFFFF" fill-rule="evenodd" stroke="none" />
      <path d="M31.1111 0L31.1111 26.129L0 26.129L0 0L31.1111 0L31.1111 0ZM32 0L0 0L0 27L32 27L32 0Z" transform="translate(103 170)" id="Shape" fill="#E2E2EC" stroke="none" />
      <path d="M0 0L32 0L32 27L0 27L0 0Z" transform="translate(72 170)" id="Rectangle-path" fill="#FFFFFF" fill-rule="evenodd" stroke="none" />
      <path d="M31.1111 0L31.1111 26.129L0 26.129L0 0L31.1111 0L31.1111 0ZM32 0L0 0L0 27L32 27L32 0Z" transform="translate(72 170)" id="Shape" fill="#E2E2EC" stroke="none" />
      <path d="M19.8821 6.73012C20.801 6.14927 21.6653 5.46402 21.9319 4.62888C22.2162 3.71093 21.5857 2.76867 20.499 2.48749C19.185 2.14487 17.781 2.75516 16.7143 3.38955C15.6476 4.02394 14.43 4.72792 13.0356 4.59676C14.4782 3.72682 15.1657 2.31618 14.7673 1.03402C14.699 0.757766 14.5308 0.505557 14.2854 0.311297C13.5561 -0.224051 12.2324 0.00882564 11.3585 0.426397C8.57943 1.76477 7.80514 4.32106 7.78908 6.63108C7.50956 5.79862 7.7441 4.93135 7.73767 4.0748C7.73125 3.21824 7.38748 2.27335 6.32725 1.81295C5.64874 1.56785 4.91388 1.44997 4.17466 1.46765C2.92487 1.43553 1.53372 1.52118 0.682319 2.14219C-0.377913 2.91309 -0.10161 4.20863 0.82047 5.05716C1.74255 5.90569 3.14655 6.43836 4.43489 7.02456C5.41802 7.47158 6.41399 7.99355 7.00515 8.7002C7.08266 8.79382 7.14732 8.89438 7.19792 9L15.0276 9C16.7522 8.41362 18.3829 7.65117 19.8821 6.73012L19.8821 6.73012Z" transform="translate(118 214)" id="Shape" fill="#6696BB" fill-rule="evenodd" stroke="none" />
      <path d="M2.5 5C3.88071 5 5 3.88071 5 2.5C5 1.11929 3.88071 0 2.5 0C1.11929 0 0 1.11929 0 2.5C0 3.88071 1.11929 5 2.5 5Z" transform="translate(74 62)" id="Oval" fill="#FC6681" fill-rule="evenodd" stroke="none" />
      <path d="M2.5 5C3.88071 5 5 3.88071 5 2.5C5 1.11929 3.88071 0 2.5 0C1.11929 0 0 1.11929 0 2.5C0 3.88071 1.11929 5 2.5 5Z" transform="translate(78 62)" id="Oval" fill="#FFD037" fill-rule="evenodd" stroke="none" />
      <path d="M2.5 5C3.88071 5 5 3.88071 5 2.5C5 1.11929 3.88071 0 2.5 0C1.11929 0 0 1.11929 0 2.5C0 3.88071 1.11929 5 2.5 5Z" transform="translate(137 88)" id="Oval" fill="#6696BB" fill-rule="evenodd" stroke="none" />
      <path d="M2.5 5C3.88071 5 5 3.88071 5 2.5C5 1.11929 3.88071 0 2.5 0C1.11929 0 0 1.11929 0 2.5C0 3.88071 1.11929 5 2.5 5Z" transform="translate(143 88)" id="Oval" fill="#6696BB" fill-rule="evenodd" stroke="none" />
      <path d="M2.5 5C3.88071 5 5 3.88071 5 2.5C5 1.11929 3.88071 0 2.5 0C1.11929 0 0 1.11929 0 2.5C0 3.88071 1.11929 5 2.5 5Z" transform="translate(233 141)" id="Oval" fill="#6696BB" fill-rule="evenodd" stroke="none" />
      <path d="M2.5 5C3.88071 5 5 3.88071 5 2.5C5 1.11929 3.88071 0 2.5 0C1.11929 0 0 1.11929 0 2.5C0 3.88071 1.11929 5 2.5 5Z" transform="translate(234 138)" id="Oval" fill="#6696BB" fill-rule="evenodd" stroke="none" />
      <path d="M2.5 5C3.88071 5 5 3.88071 5 2.5C5 1.11929 3.88071 0 2.5 0C1.11929 0 0 1.11929 0 2.5C0 3.88071 1.11929 5 2.5 5Z" transform="translate(237 135)" id="Oval" fill="#6696BB" fill-rule="evenodd" stroke="none" />
      <path d="M2.5 5C3.88071 5 5 3.88071 5 2.5C5 1.11929 3.88071 0 2.5 0C1.11929 0 0 1.11929 0 2.5C0 3.88071 1.11929 5 2.5 5Z" transform="translate(202 62)" id="Oval" fill="#6696BB" fill-rule="evenodd" stroke="none" />
      <path d="M2.5 5C3.88071 5 5 3.88071 5 2.5C5 1.11929 3.88071 0 2.5 0C1.11929 0 0 1.11929 0 2.5C0 3.88071 1.11929 5 2.5 5Z" transform="translate(206 62)" id="Oval" fill="#6696BB" fill-rule="evenodd" stroke="none" />
      <path d="M2.5 5C3.88071 5 5 3.88071 5 2.5C5 1.11929 3.88071 0 2.5 0C1.11929 0 0 1.11929 0 2.5C0 3.88071 1.11929 5 2.5 5Z" transform="translate(211 62)" id="Oval" fill="#6696BB" fill-rule="evenodd" stroke="none" />
      <path d="M2.5 5C3.88071 5 5 3.88071 5 2.5C5 1.11929 3.88071 0 2.5 0C1.11929 0 0 1.11929 0 2.5C0 3.88071 1.11929 5 2.5 5Z" transform="translate(215 62)" id="Oval" fill="#6696BB" fill-rule="evenodd" stroke="none" />
      <path d="M2.5 5C3.88071 5 5 3.88071 5 2.5C5 1.11929 3.88071 0 2.5 0C1.11929 0 0 1.11929 0 2.5C0 3.88071 1.11929 5 2.5 5Z" transform="translate(202 117)" id="Oval" fill="#6696BB" fill-rule="evenodd" stroke="none" />
      <path d="M2.5 5C3.88071 5 5 3.88071 5 2.5C5 1.11929 3.88071 0 2.5 0C1.11929 0 0 1.11929 0 2.5C0 3.88071 1.11929 5 2.5 5Z" transform="translate(206 117)" id="Oval" fill="#6696BB" fill-rule="evenodd" stroke="none" />
      <path d="M2.5 5C3.88071 5 5 3.88071 5 2.5C5 1.11929 3.88071 0 2.5 0C1.11929 0 0 1.11929 0 2.5C0 3.88071 1.11929 5 2.5 5Z" transform="translate(211 117)" id="Oval" fill="#6696BB" fill-rule="evenodd" stroke="none" />
      <path d="M2.5 5C3.88071 5 5 3.88071 5 2.5C5 1.11929 3.88071 0 2.5 0C1.11929 0 0 1.11929 0 2.5C0 3.88071 1.11929 5 2.5 5Z" transform="translate(215 117)" id="Oval" fill="#6696BB" fill-rule="evenodd" stroke="none" />
      <path d="M2.5 5C3.88071 5 5 3.88071 5 2.5C5 1.11929 3.88071 0 2.5 0C1.11929 0 0 1.11929 0 2.5C0 3.88071 1.11929 5 2.5 5Z" transform="translate(106 88)" id="Oval" fill="#FFD037" fill-rule="evenodd" stroke="none" />
      <path d="M2.5 5C3.88071 5 5 3.88071 5 2.5C5 1.11929 3.88071 0 2.5 0C1.11929 0 0 1.11929 0 2.5C0 3.88071 1.11929 5 2.5 5Z" transform="translate(74 117)" id="Oval" fill="#FC6681" fill-rule="evenodd" stroke="none" />
      <path d="M1.07409 100.486C3.0563 101.644 6.14855 102.397 10.0654 99.9089L10.0273 105.419C10.3064 109.185 15.0289 122.963 15.0289 122.963L18.359 134.291C20.7451 142.294 21.9773 150.59 22.0189 158.933C22.0189 161.698 22.279 164.547 23.0814 166.69C24.8543 171.431 22.3836 177.541 21.3117 179.816C19.5072 180.419 17.6727 180.93 15.8154 181.347C15.6483 181.385 15.4841 181.434 15.3238 181.495L15.3016 181.463C15.3016 181.463 10.3033 183.424 8.08318 183.155C6.42764 182.954 5.39055 184.997 6.68771 186.5C5.4635 186.813 4.20757 187.036 3.36077 186.933C1.14069 186.663 0.0274817 190.441 4.19488 191.52C8.36228 192.6 31.9744 191.52 31.9744 191.52C33.3404 190.844 34.071 189.339 33.7504 187.861C35.5645 187.792 36.6968 187.739 36.6968 187.739C36.6968 187.739 40.8642 185.856 36.6968 180.72L36.4748 180.886L35.5836 178.291L35.5836 174.786C35.5836 174.786 40.861 149.682 39.196 146.714C37.5309 143.746 36.6968 128.63 36.6968 128.63L37.2613 112.166C38.7678 109.09 39.5385 104.271 39.9286 100.502C40.4954 98.7041 40.8529 96.848 40.9942 94.9699C41.0608 94.085 41.1147 93.1561 41.1496 92.1928C41.1637 90.0798 40.814 87.9798 40.1157 85.9829C41.7015 83.7236 44.2799 80.2311 46.408 78.1663C49.7413 74.928 48.9072 71.1468 48.9072 71.1468L47.5181 61.9684L44.1848 46.3134C44.6034 41.9705 43.6869 39.4696 42.6751 38.0576C42.9162 36.6549 43.1413 35.2523 43.3094 33.8433C44.0483 27.7164 43.7189 21.5095 42.3358 15.4928C41.8537 13.3936 41.1972 11.241 39.7097 9.65005C38.0257 7.84889 35.2918 6.75062 34.6638 4.39091C34.5084 3.80412 34.5021 3.17968 34.2769 2.61485C33.668 1.071 31.7397 0.509313 30.0524 0.308487C27.0458 -0.0523731 22.6976 -0.319096 19.8084 0.841932C17.7913 1.65779 15.013 3.90453 13.9093 6.31445C13.275 7.42213 12.98 8.5863 13.2496 9.68143C13.3559 10.0849 13.517 10.4723 13.7285 10.833C13.2981 11.9873 13.079 13.2082 13.0815 14.4385C13.102 18.7664 15.7968 22.6413 19.875 24.2068C19.9416 24.4139 20.0018 24.6179 20.0526 24.8187C20.1788 25.3022 20.2699 25.794 20.3253 26.2904C20.2714 27.2318 20.2111 28.2014 20.1667 29.1584C20.135 29.2902 20.1012 29.4199 20.0652 29.5475C17.6762 30.5941 15.3469 31.7694 13.0879 33.0683C14.7561 35.497 12.8088 45.7549 12.8088 45.7549C8.64137 48.1836 4.47398 54.3935 8.92047 60.8702C13.367 67.3468 10.8646 74.3632 10.8646 74.3632L10.1701 84.916L10.1701 84.916L10.1701 84.9348L10.0305 87.0466L10.0844 87.0466L10.0305 87.8468L10.151 87.8688L10.151 88.7285C8.20053 89.4377 5.34932 90.8686 3.64938 93.5139C2.84552 94.8151 1.86719 96.0026 0.741077 97.044C0.216148 97.4934 -0.0563711 98.1665 0.00976996 98.8502C0.075911 99.5339 0.472525 100.144 1.07409 100.486ZM34.5268 72.8889C34.344 71.055 34.7168 69.2105 35.6049 67.5556C36.319 67.5682 37.0342 67.5755 37.7506 67.5776C37.8234 68.0347 37.9101 68.4697 38.0141 68.8668C38.6311 71.2561 36.1664 72.4003 34.5233 72.8857L34.5268 72.8889Z" transform="translate(233 44)" id="Shape" fill="url(#gradient_2)" stroke="none" />
      <path d="M22.8976 1.84879L24 4.63852L20.4018 7.67384L8.54736 10L0 9.30188L0.552814 6.74393L0.552814 6.74393C0.88573 5.62276 1.93364 4.75262 3.26782 4.48951C6.78097 3.79415 13.4802 2.20475 14.8867 0L22.8976 1.84879Z" transform="translate(245 221)" id="Shape" fill="#DB8B8B" fill-rule="evenodd" stroke="none" />
      <path d="M22.8976 1.84879L24 4.63852L20.4018 7.67384L8.54736 10L0 9.30188L0.552814 6.74393L0.552814 6.74393C0.88573 5.62276 1.93364 4.75262 3.26782 4.48951C6.78097 3.79415 13.4802 2.20475 14.8867 0L22.8976 1.84879Z" transform="translate(245 221)" id="Shape" fill="#000000" fill-opacity="0.1" fill-rule="evenodd" stroke="none" />
      <path d="M9.07523 5.04275L10.7202 3.02565L9.07523 0.688328C9.07523 0.688328 4.14359 2.51988 1.95247 2.26849C-0.238651 2.0171 -1.33421 5.5605 2.77495 6.55708C6.88411 7.55366 30.1737 6.55708 30.1737 6.55708C30.1737 6.55708 34.2829 4.79136 30.1737 0L26.5977 2.52287C26.5977 2.52287 20.5705 5.54852 17.5569 5.04575L9.07523 5.04275Z" transform="translate(239 225)" id="Shape" fill="#2E3037" fill-rule="evenodd" stroke="none" />
      <path d="M0 9.30245L8.54736 10L20.4018 7.67577L24 4.64296L23.7089 3.90405L23.2967 2.86738L22.8846 1.85829L14.89 0C14.4816 0.561887 13.9211 1.03429 13.2545 1.37855C10.6572 2.87565 5.99264 3.95644 3.25474 4.49683C3.14378 4.5198 3.03455 4.54834 2.92763 4.5823C1.74931 4.91598 0.854082 5.7329 0.552814 6.74938L0 9.30245Z" transform="translate(243 225)" id="Shape" fill="#DB8B8B" fill-rule="evenodd" stroke="none" />
      <path d="M0 6.19901L8.54736 7L20.4018 4.33107L24 0.848485L23.7089 0L20.4182 2.45047C20.4182 2.45047 14.3535 5.65129 11.3212 5.1194L2.75753 5.1194L4.4127 2.98553L2.92763 0.769335C1.74931 1.1525 0.854082 2.09057 0.552814 3.2578L0 6.19901Z" transform="translate(243 228)" id="Shape" fill="#000000" fill-opacity="0.1" fill-rule="evenodd" stroke="none" />
      <path d="M9.07523 5.04275L10.7202 3.02565L9.07523 0.688328C9.07523 0.688328 4.14359 2.51988 1.95247 2.26849C-0.238651 2.0171 -1.33421 5.5605 2.77495 6.55708C6.88411 7.55366 30.1737 6.55708 30.1737 6.55708C30.1737 6.55708 34.2829 4.79136 30.1737 0L26.5977 2.52287C26.5977 2.52287 20.5705 5.54852 17.5569 5.04575L9.07523 5.04275Z" transform="translate(237 230)" id="Shape" fill="#2E3037" fill-rule="evenodd" stroke="none" />
      <path d="M0 13.855C0 13.855 12 15.1611 10.2501 9.93365C9.76081 8.45123 9.63337 6.86442 9.87939 5.31739C10.1907 3.39936 10.9159 1.58081 12 0L0.750371 1.83037C1.42443 3.00943 1.93756 4.28129 2.27484 5.60901C3.61542 11.1529 0 13.855 0 13.855Z" transform="translate(250 66)" id="Shape" fill="#DB8B8B" fill-rule="evenodd" stroke="none" />
      <path d="M15 0C15 0 14.7425 11.266 12.1582 16.7684L11.6401 32.7503C11.6401 32.7503 12.4157 47.4234 13.9669 50.3052C15.5181 53.187 10.5947 77.5531 10.5947 77.5531L10.5947 81.7467C10.5947 81.7467 2.3176 84.8896 0 81.2213L2.32679 50.041L1.29368 6.81119L15 0Z" transform="translate(256 141)" id="Shape" fill="#474463" fill-rule="evenodd" stroke="none" />
      <path d="M15 0C15 0 14.7425 11.266 12.1582 16.7684L11.6401 32.7503C11.6401 32.7503 12.4157 47.4234 13.9669 50.3052C15.5181 53.187 10.5947 77.5531 10.5947 77.5531L10.5947 81.7467C10.5947 81.7467 2.3176 84.8896 0 81.2213L2.32679 50.041L1.29368 6.81119L15 0Z" transform="translate(256 141)" id="Shape" fill="#6696BB" fill-opacity="0.78" fill-rule="evenodd" stroke="none" />
      <path d="M11.9889 0L13.5887 4.39091L14.9198 13.7196C15.2847 16.3561 14.391 19.0119 12.5201 20.8511C9.32367 24.1419 5.05862 31 5.05862 31L0 15.3763C0 15.3763 5.05862 14.5528 4.26505 10.9854C3.47148 7.418 3.72757 0.810479 3.72757 0.810479L11.9889 0Z" transform="translate(265 106)" id="Shape" fill="#F95F5F" fill-rule="evenodd" stroke="none" />
      <path d="M11.9889 0L13.5887 4.39091L14.9198 13.7196C15.2847 16.3561 14.391 19.0119 12.5201 20.8511C9.32367 24.1419 5.05862 31 5.05862 31L0 15.3763C0 15.3763 5.05862 14.5528 4.26505 10.9854C3.47148 7.418 3.72757 0.810479 3.72757 0.810479L11.9889 0Z" transform="translate(290 122)" id="Shape" fill="#000000" fill-opacity="0.05" fill-rule="evenodd" stroke="none" />
      <path d="M3.34155e-14 2.01589C3.17734 8.85624 8.1241 4.98138 9 4.20883L8.64141 2.712L1.45787 0C1.09456 0.819648 0.595062 1.51034 0 2.01589L3.34155e-14 2.01589Z" transform="translate(255 225)" id="Shape" fill="#000000" fill-opacity="0.1" fill-rule="evenodd" stroke="none" />
      <path d="M0 29.4335C0.249138 33.1445 4.4993 46.6614 4.4993 46.6614L7.49785 57.7851C9.64653 65.6503 10.7555 73.7937 10.793 81.9822C10.793 84.6963 11.0273 87.4953 11.751 89.5992C13.75 95.4299 9.75196 103.383 9.75196 103.383C13.2517 110.01 19.2429 105.503 19.2429 105.503L19.2429 101.264C19.2429 101.264 23.9884 78.202 22.7427 73.6984C21.497 69.1949 20.9928 56.9988 20.9928 56.9988L20.9928 34.9843C24.9971 30.7535 27.4321 25.1363 27.853 19.1589C27.9123 18.2909 27.9598 17.3789 27.9924 16.4323C28.1941 10.4569 24.3384 3.44056 22.8317 0.943481C22.4698 0.339653 22.2385 0 22.2385 0L0.166092 9.28385L0.115671 9.30587L0.115671 10.2116L0.115671 12.2149L0 29.4335Z" transform="translate(243 123)" id="Shape" fill="#6696BB" fill-rule="evenodd" stroke="none" />
      <path d="M0 2.03947C0.659103 3.35545 1.16084 4.77501 1.49064 6.25691C3.90455 7.3504 6.58608 7.23302 8.92644 5.93143C9.23123 3.79187 9.94037 1.76338 11 0L0 2.03947Z" transform="translate(252 66)" id="Shape" fill="#000000" fill-opacity="0.1" fill-rule="evenodd" stroke="none" />
      <path d="M11 22C17.0751 22 22 17.0751 22 11C22 4.92487 17.0751 0 11 0C4.92487 0 0 4.92487 0 11C0 17.0751 4.92487 22 11 22Z" transform="translate(245 52)" id="Oval" fill="#DB8B8B" fill-rule="evenodd" stroke="none" />
      <path d="M0 10.718L0.116898 10.7374C11.5924 12.7472 26 2.5627 26 2.5627C25.6139 2.00849 25.2806 1.42885 25.0031 0.829353C24.607 0.298567 24.3537 0 24.3537 0L0.188335 8.16084L0.126639 8.97637L0 10.718Z" transform="translate(243 123)" id="Shape" fill="#000000" fill-opacity="0.1" fill-rule="evenodd" stroke="none" />
      <path d="M5.69668 6.24677C5.69668 6.24677 20.2859 -2.83667 24.9748 0.903193L31.4874 9.46052C31.4874 9.46052 35.6571 10.7948 34.8874 19.3426L38 34.8314L28.6221 37.237C28.6221 37.237 23.1512 42.5805 27.5805 50.3265C27.5805 50.3265 13.7733 62.0785 2.83138 59.6762L3.61339 47.1222C3.61339 47.1222 5.95941 40.1781 1.78974 33.7665C-2.37993 27.3548 1.5301 21.2126 5.43704 18.807C5.43704 18.8038 7.2576 8.65233 5.69668 6.24677Z" transform="translate(240 75)" id="Shape" fill="#E54E4E" fill-rule="evenodd" stroke="none" />
      <path d="M11.3564 0C11.3564 0 5.945 0.965519 3.36772 4.83046C2.62409 5.98976 1.71709 7.04982 0.671209 7.982C0.194177 8.38748 -0.0511978 8.97983 0.00895361 9.58073C0.069105 10.1816 0.427756 10.7209 0.976936 11.0361C3.02225 12.1822 6.35773 12.8955 10.5707 9.65232C17.798 4.1056 11.3564 0 11.3564 0Z" transform="translate(234 135)" id="Shape" fill="#DB8B8B" fill-rule="evenodd" stroke="none" />
      <path d="M8.83179 0.201503C8.83179 0.201503 14.0364 -0.336674 15.336 13.6209C16.6356 27.5784 18.7317 30.7979 18.7317 30.7979C18.7317 30.7979 20.0313 38.0458 16.9104 42.3385C13.7894 46.6312 7.80383 55.7579 7.80383 55.7579C7.80383 55.7579 1.29961 57.6367 0 50.927L8.06622 35.3613C8.06622 35.3613 9.36583 29.9923 6.24492 26.2346C3.124 22.4769 0.765566 -2.48301 8.83179 0.201503Z" transform="translate(244 84)" id="Shape" fill="#000000" fill-opacity="0.1" fill-rule="evenodd" stroke="none" />
      <path d="M8.83179 0.201503C8.83179 0.201503 14.0364 -0.336674 15.336 13.6209C16.6356 27.5784 18.7317 30.7979 18.7317 30.7979C18.7317 30.7979 20.0313 38.0458 16.9104 42.3385C13.7894 46.6312 7.80383 55.7579 7.80383 55.7579C7.80383 55.7579 1.29961 57.6367 0 50.927L8.06622 35.3613C8.06622 35.3613 9.36583 29.9923 6.24492 26.2346C3.124 22.4769 0.774826 -2.48301 8.83179 0.201503Z" transform="translate(244 84)" id="Shape" fill="#F95F5F" fill-rule="evenodd" stroke="none" />
      <path d="M0.0678537 0C0.0678537 0 -0.648851 8.44357 2.57632 13.0891C5.80149 17.7347 5.81429 23.7229 2.57632 27" transform="translate(249 95)" id="Shape" fill="#000000" fill-opacity="0.1" fill-rule="evenodd" stroke="none" />
      <path d="M0 5C0 5 2.24917 2.64829 8.71969 2.35171C15.1902 2.05513 18 0 18 0" transform="translate(246 82)" id="Shape" fill="#000000" fill-opacity="0.1" fill-rule="evenodd" stroke="none" />
      <path d="M15.6134 0.307717C17.2021 0.507607 19.0266 1.06603 19.5913 2.59217C19.8023 3.15376 19.8085 3.77247 19.9544 4.3531C20.547 6.68832 23.1194 7.77661 24.705 9.56292C26.1044 11.1493 26.7219 13.272 27.1873 15.3502C28.4931 21.3097 28.8078 27.4515 28.1182 33.5179C27.6093 37.9599 26.5667 42.3194 26.2751 46.7741C25.9834 51.2288 26.5171 55.9151 28.8971 59.6591C29.921 61.2677 31.2739 62.6828 32 64.4532C30.5013 65.697 28.4316 65.8747 26.4985 65.9413C24.2499 66.0196 22.0003 66.0196 19.7496 65.9413C18.5705 65.9001 17.3386 65.8207 16.3208 65.2115C15.5672 64.7187 14.9481 64.0387 14.5211 63.2349C13.2334 61.0139 12.9107 58.3169 12.9697 55.7279C13.0286 53.1389 13.4258 50.5625 13.4723 47.9703C13.4972 46.5584 13.3886 45.0576 12.5942 43.9027C12.0202 43.0682 11.1482 42.5066 10.4035 41.8308C7.61088 39.2925 6.64277 35.2249 6.54968 31.4017C6.45659 27.5784 7.07407 23.7487 6.75757 19.9381C6.63346 18.4469 6.08734 16.6542 4.65378 16.3655C4.20075 16.2735 3.7229 16.3655 3.28849 16.1878C2.13729 15.7341 2.249 14.0747 1.92009 12.8595C1.55084 11.4952 0.412059 10.4418 0.0924562 9.05209C-0.661559 5.81579 3.36606 1.95443 6.00666 0.828065C8.69071 -0.320507 12.7835 -0.0476421 15.6134 0.307717Z" transform="translate(245 49)" id="Shape" fill="#000000" fill-opacity="0.1" fill-rule="evenodd" stroke="none" />
      <path d="M15.6134 0.310068C17.2021 0.509951 19.0266 1.06835 19.5913 2.59444C19.8023 3.15601 19.8085 3.7747 19.9544 4.35531C20.547 6.69044 23.1194 7.77869 24.705 9.56494C26.1044 11.1513 26.7219 13.2739 27.1873 15.352C28.4931 21.3113 28.8078 27.4529 28.1182 33.5191C27.6093 37.9609 26.5667 42.3203 26.2751 46.7748C25.9834 51.2293 26.5171 55.9155 28.8971 59.6593C29.921 61.2679 31.2739 62.6829 32 64.4533C30.5013 65.697 28.4316 65.8747 26.4985 65.9413C24.2499 66.0196 22.0003 66.0196 19.7496 65.9413C18.5705 65.9001 17.3386 65.8207 16.3208 65.2116C15.5672 64.7188 14.9481 64.0387 14.5211 63.235C13.2334 61.014 12.9107 58.3172 12.9697 55.7283C13.0286 53.1393 13.4258 50.563 13.4723 47.9709C13.4972 46.5591 13.3886 45.0583 12.5942 43.9035C12.0202 43.069 11.1482 42.5075 10.4035 41.8317C7.61088 39.2935 6.64277 35.226 6.54968 31.4029C6.45659 27.5797 7.07407 23.7502 6.75757 19.9398C6.63346 18.4486 6.08734 16.656 4.65378 16.3673C4.20075 16.2753 3.7229 16.3673 3.28849 16.1896C2.13729 15.7359 2.249 14.0766 1.92009 12.8614C1.55084 11.4971 0.412059 10.4438 0.0924562 9.05413C-0.661559 5.81794 3.36606 1.95672 6.00666 0.830397C8.69071 -0.321306 12.7835 -0.0484509 15.6134 0.310068Z" transform="translate(245 49)" id="Shape" fill="#472727" fill-rule="evenodd" stroke="none" />
    </g>
  </g>
</svg>