<?xml version="1.0" encoding="utf-8"?>
<svg width="314px" height="229px" viewBox="0 0 314 229" version="1.1" xmlns:xlink="http://www.w3.org/1999/xlink" xmlns="http://www.w3.org/2000/svg">
  <desc>Created with Lunacy</desc>
  <defs>
    <linearGradient x1="0.5000401" y1="0.99993485" x2="0.5000401" y2="1.5844469E-05" id="gradient_1">
      <stop offset="0" stop-color="#808080" stop-opacity="0.2509804" />
      <stop offset="0.54" stop-color="#808080" stop-opacity="0.12156863" />
      <stop offset="1" stop-color="#808080" stop-opacity="0.101960786" />
    </linearGradient>
    <path d="M7.08872 14.5884C7.08872 14.5884 22.3683 19.1942 43.7634 12.284C65.1584 5.37389 109.471 22.2637 109.471 22.2637C109.471 22.2637 144.617 22.2637 196.574 0C196.574 0 172.889 23.0318 189.697 36.8521C206.506 50.6724 191.226 70.6317 171.36 78.31C151.494 85.9882 149.968 101.342 151.494 115.93C153.02 130.519 151.494 116.698 151.494 116.698C151.494 116.698 91.8984 105.951 76.6158 142.809L0.976283 23.0348C0.976283 23.0348 -3.60729 13.8233 7.08872 14.5884Z" id="path_1" />
    <clipPath id="mask_1">
      <use xlink:href="#path_1" />
    </clipPath>
  </defs>
  <g id="undraw_superhero_kguv">
    <path d="M222.647 63.2655C221.846 62.6094 221.098 61.8908 220.41 61.1162C220.41 61.3009 220.41 61.4855 220.41 61.6702C214.949 56.0578 215.141 49.2588 217.377 43.0561L218.117 42.7806C221.628 33.4327 229.674 25.5923 229.674 25.5923L228.472 26.1008C228.845 25.7134 229.058 25.4954 229.058 25.4954C179.161 46.9308 144.443 48.1811 140.571 48.2537C138.185 47.3456 118.52 40.1348 99.4959 37.4467C93.5112 36.5718 87.5686 36.1329 82.2301 36.4719L76.2364 10.5563L76.1222 10.6259C75.8427 8.40395 74.8056 3.56652 71.0122 0.566588C65.9473 -3.41718 69.7197 14.9124 69.7197 14.9124L70.1345 14.7156L72.2567 37.7948L71.2226 38.6667C65.2266 40.4666 59.039 41.5408 52.7906 41.8664C53.9428 40.7931 54.892 39.5182 55.5921 38.1036C56.4093 38.2734 57.2567 38.02 57.8495 37.4285C58.0464 37.2199 58.2133 36.9845 58.3455 36.7293C58.6215 36.2801 58.8435 35.7994 59.0068 35.2974C60.2512 31.9312 61.6098 28.5559 62.0126 24.9899C62.4154 21.4238 61.7541 17.5551 59.3705 14.8821C56.9868 12.2091 52.6403 11.192 49.7216 13.2565C48.9671 13.7893 48.3269 14.4977 47.4973 14.9033C44.9693 16.1354 42.1648 14.1374 39.8112 12.5936C37.0759 10.7985 33.4628 9.5119 30.6283 11.1405C29.7435 11.6586 29.016 12.4101 28.5242 13.314C27.7468 14.5549 27.3815 16.0126 27.4811 17.4764C27.6434 19.8285 28.9029 22.0172 30.5892 23.6397C31.1556 24.2383 31.8522 24.6963 32.6242 24.9778C32.8206 25.0386 33.0217 25.0831 33.2254 25.1109C31.3265 28.0044 30.6494 31.5401 31.3437 34.9372L30.2946 41.3306C29.3628 41.7695 28.8428 42.7291 28.5512 43.6676C24.1656 43.7977 19.6779 46.8249 19.6779 46.8249L2.44218 64.1827C-2.02755 67.2372 1.00538 72.8617 1.00538 72.8617L11.06 103.239L11.6161 102.822C13.6781 106.606 19.732 117.049 20.8953 111.843C22.317 105.534 17.8894 99.8066 17.8894 99.8066L17.8353 99.8066L16.69 98.3232L12.4818 75.7405L17.8052 70.4157L24.9592 69.3653L25.2778 116.126C12.1902 150.845 13.7864 166.756 13.7864 166.756L25.2778 210.153L26.7447 209.908L27.0994 211.337L27.2286 211.291L27.8659 214.494L26.7176 214.494L25.2808 218.835C25.2808 218.835 17.9405 218.675 18.0998 220.282C18.2591 221.89 22.2509 224.623 32.4649 221.729L35.3385 218.835C35.3385 218.835 36.7753 217.388 33.9017 214.494L33.6973 214.494L32.9007 208.876L33.9017 208.706L25.2778 165.3C32.4589 159.351 45.3871 136.369 45.3871 136.369C45.3871 136.369 58.3124 159.354 65.4964 165.3L56.8786 208.694L57.8796 208.864L57.095 214.482L56.8906 214.482C54.017 217.376 55.4538 218.823 55.4538 218.823L58.3274 221.717C68.5474 224.611 72.5332 221.878 72.6925 220.27C72.8518 218.663 65.5115 218.823 65.5115 218.823L64.0747 214.482L62.9264 214.482L63.753 210.317L63.9003 209.872L65.5115 210.141L77.0029 166.744C77.0029 166.744 76.7895 141.669 65.6317 110.326L88.5545 142.699L106.692 171.499C107.652 169.17 108.832 166.94 110.218 164.839L123.342 152.492C138.596 143.353 158.961 142.805 171.538 143.558L183.134 144.821L188.587 115.893C191.764 111.773 196.48 108.219 203.337 105.561C217.561 100.052 229.488 88.3548 229.392 76.9816C229.599 77.2147 229.801 77.4478 229.993 77.6839C230.14 72.6528 227.973 67.6579 222.647 63.2655ZM65.2109 106.176L65.1959 105.643L65.8571 106.69L65.2109 106.176Z" transform="translate(43 6)" id="Shape" fill="url(#gradient_1)" stroke="none" />
    <path d="M6.79964 3.42971L6.74553 3.42971L4.19341 0L0.0631266 4.30358L0.520043 5.01771L0 5.14926C0 5.14926 8.33572 21.9251 9.72451 15.5574C11.1133 9.18974 6.79964 3.42971 6.79964 3.42971Z" transform="translate(57 102)" id="Shape" fill="#FDB797" fill-rule="evenodd" stroke="none" />
    <path d="M7.09218 14.608C7.09218 14.608 22.3792 19.2199 43.7847 12.3005C65.1902 5.38108 109.525 22.2935 109.525 22.2935C109.525 22.2935 144.688 22.2935 196.67 0C196.67 0 172.973 23.0627 189.79 36.9015C206.607 50.7403 191.32 70.7263 171.444 78.4148C151.568 86.1034 150.041 101.477 151.568 116.085C153.095 130.693 151.568 116.855 151.568 116.855C151.568 116.855 91.9433 106.092 76.6532 143L0.97676 23.0657C0.97676 23.0657 -3.60905 13.8418 7.09218 14.608Z" transform="translate(73 34)" id="83eae6ee-46c5-4585-a2a2-a187faac01c1" fill="#6696BB" fill-rule="evenodd" stroke="none" />
    <g id="Clipped" transform="translate(117.059814 55.352173)">
      <path d="M7.08872 14.5884C7.08872 14.5884 22.3683 19.1942 43.7634 12.284C65.1584 5.37389 109.471 22.2637 109.471 22.2637C109.471 22.2637 144.617 22.2637 196.574 0C196.574 0 172.889 23.0318 189.697 36.8521C206.506 50.6724 191.226 70.6317 171.36 78.31C151.494 85.9882 149.968 101.342 151.494 115.93C153.02 130.519 151.494 116.698 151.494 116.698C151.494 116.698 91.8984 105.951 76.6158 142.809L0.976283 23.0348C0.976283 23.0348 -3.60729 13.8233 7.08872 14.5884Z" id="c8ed4358-d450-436c-89b2-67b880a93208" fill="none" fill-rule="evenodd" stroke="none" />
      <g clip-path="url(#mask_1)">
        <g id="Group" transform="translate(-75.155396 -30.051239)">
          <path d="M0 0L190.247 137.426L201.707 103.646L0 0L0 0Z" id="Shape" fill="#000000" fill-opacity="0.1" fill-rule="evenodd" stroke="none" />
          <path d="M0 0L105.437 107.484L120.72 95.9679L0 0L0 0Z" transform="translate(11.460449 42.99411)" id="Shape" fill="#000000" fill-opacity="0.1" fill-rule="evenodd" stroke="none" />
        </g>
      </g>
    </g>
    <g id="Group" transform="translate(74.075195 34.262543)" opacity="0.1">
      <path d="M10.9169 25.1831C10.9169 25.1831 26.1965 29.7611 47.5916 22.8927C68.9866 16.0243 113.293 32.815 113.293 32.815C113.293 32.815 141.726 32.815 185.247 16.7123C188.688 7.62284 196.574 0 196.574 0C144.605 22.1292 109.471 22.1292 109.471 22.1292C109.471 22.1292 65.1554 5.34142 43.7634 12.2098C22.3713 19.0782 7.08872 14.5003 7.08872 14.5003C-3.60729 13.7368 0.976284 22.8957 0.976284 22.8957L4.12164 27.8478C4.7773 26.179 6.60529 24.8753 10.9169 25.1831Z" transform="translate(0.07518886 0.2625444)" id="Shape" fill="#000000" fill-rule="evenodd" stroke="none" />
      <path d="M2.20672 2.0913C1.42154 1.45296 0.688068 0.75369 0.0131346 0C-0.162111 4.5055 1.39395 8.98686 6.02586 12.7741C7.26029 13.7716 8.39191 14.8897 9.40387 16.1118C9.55192 11.217 7.42783 6.3584 2.20672 2.0913Z" transform="translate(187.49976 34.538177)" id="Shape" fill="#000000" fill-rule="evenodd" stroke="none" />
    </g>
    <path d="M7 2.85627L5.6006 10L0 10L1.4024 0L7 2.85627L7 2.85627Z" transform="translate(101 210)" id="Shape" fill="#FDB797" fill-rule="evenodd" stroke="none" />
    <path d="M6 1L5.60102 2L0 0.667513L0.398985 0L6 1L6 1Z" transform="translate(102 212)" id="Shape" fill="#000000" fill-opacity="0.1" fill-rule="evenodd" stroke="none" />
    <path d="M0 2.85627L1.4 10L7 10L5.6 0L0 2.85627L0 2.85627Z" transform="translate(72 210)" id="Shape" fill="#FDB797" fill-rule="evenodd" stroke="none" />
    <path d="M0 1.28618L0.398782 3L6 0.858542L6 0L0 1.28618L0 1.28618Z" transform="translate(72 212)" id="Shape" fill="#000000" fill-opacity="0.1" fill-rule="evenodd" stroke="none" />
    <path d="M8 11.8858C8 11.8858 7.83669 4.5892 2.68297 0.572308C-2.47074 -3.44458 1.38591 15 1.38591 15L8 11.8858Z" transform="translate(112 9)" id="Shape" fill="#FDB797" fill-rule="evenodd" stroke="none" />
    <path d="M15.2656 0L8.32781 0L6.94025 4.59482C6.94025 4.59482 -0.152335 4.42416 0.00249867 6.12424C0.157333 7.82433 4.01032 10.7191 13.878 7.65366L16.6531 4.59482C16.6531 4.59482 18.0407 3.05884 15.2656 0Z" transform="translate(63 218)" id="Shape" fill="#333333" fill-rule="evenodd" stroke="none" />
    <path d="M1.73444 0L8.67219 0L10.0597 4.59482C10.0597 4.59482 17.1523 4.42416 16.9975 6.12424C16.8427 7.82433 12.9897 10.7191 3.12199 7.65366L0.346888 4.59482C0.346888 4.59482 -1.04066 3.05884 1.73444 0Z" transform="translate(100 218)" id="Shape" fill="#333333" fill-rule="evenodd" stroke="none" />
    <path d="M50.6872 0L11.3119 0C-1.50328 33.5964 0.0601449 48.9963 0.0601449 48.9963L11.3119 90.991L19.7629 89.5913L11.3119 47.6056C18.3443 41.8505 31.0056 19.6081 31.0056 19.6081C31.0056 19.6081 43.6609 41.8385 50.6872 47.6056L42.2363 89.6003L50.6872 91L61.939 49.0053C61.939 49.0053 63.5115 33.5964 50.6872 0Z" transform="translate(59 121)" id="Shape" fill="#333333" fill-rule="evenodd" stroke="none" />
    <path d="M0 0C0 0 22.1166 6.75 39 0L0 0Z" transform="translate(70 121)" id="Shape" fill="#000000" fill-opacity="0.1" fill-rule="evenodd" stroke="none" />
    <path d="M23.7515 19.9807L12.3707 31.243L16.6446 53.7706L10.9541 58L0.995867 28.4335C0.995867 28.4335 -2.0081 22.9594 2.41848 19.9747L19.4929 3.07826C19.4929 3.07826 26.8196 -1.7795 31.8568 0.709801C36.8939 3.1991 23.6539 19.8025 23.6539 19.8025" transform="translate(45 51)" id="Shape" fill="#F96060" fill-rule="evenodd" stroke="none" />
    <path d="M0 52.2927L1.40605 103.222C1.40605 103.222 23.7339 111.722 40.7785 103.222L39.3724 55.2797L39.0133 53.6951L39.2728 52.915L56.1696 38.8181C60.8011 36.2531 58.3541 30.4978 58.3541 30.4978L51.2936 0L45.2983 3.69725L47.4104 26.6275L35.3775 36.6689L35.0758 36.6538L4.23022 35.3181" transform="translate(68 19)" id="Shape" fill="#F96060" fill-rule="evenodd" stroke="none" />
    <path d="M5.499 0L5.501 0Q5.63599 0 5.77082 0.00662379Q5.90565 0.0132476 6.04 0.0264792Q6.17434 0.0397108 6.30787 0.0595184Q6.4414 0.0793259 6.5738 0.105662Q6.7062 0.131998 6.83715 0.164798Q6.96809 0.197599 7.09728 0.236785Q7.22646 0.275971 7.35356 0.321449Q7.48066 0.366927 7.60538 0.418586Q7.73009 0.470246 7.85212 0.527963Q7.97416 0.58568 8.09321 0.649315Q8.21226 0.71295 8.32805 0.78235Q8.44384 0.85175 8.55608 0.926749Q8.66832 1.00175 8.77675 1.08216Q8.88518 1.16258 8.98953 1.24822Q9.09388 1.33385 9.1939 1.42451Q9.29393 1.51517 9.38938 1.61062Q9.48483 1.70607 9.57549 1.8061Q9.66615 1.90612 9.75178 2.01047Q9.83742 2.11482 9.91784 2.22325Q9.99825 2.33168 10.0733 2.44392Q10.1482 2.55616 10.2176 2.67195Q10.287 2.78774 10.3507 2.90679Q10.4143 3.02584 10.472 3.14787Q10.5298 3.26991 10.5814 3.39462Q10.6331 3.51934 10.6785 3.64644Q10.724 3.77354 10.7632 3.90272Q10.8024 4.0319 10.8352 4.16285Q10.868 4.2938 10.8943 4.4262Q10.9207 4.5586 10.9405 4.69213Q10.9603 4.82566 10.9735 4.96Q10.9868 5.09435 10.9934 5.22918Q11 5.36401 11 5.499L11 6.501Q11 6.63599 10.9934 6.77082Q10.9868 6.90565 10.9735 7.04Q10.9603 7.17434 10.9405 7.30787Q10.9207 7.4414 10.8943 7.5738Q10.868 7.7062 10.8352 7.83715Q10.8024 7.96809 10.7632 8.09727Q10.724 8.22645 10.6785 8.35356Q10.6331 8.48066 10.5814 8.60538Q10.5298 8.73009 10.472 8.85213Q10.4143 8.97416 10.3507 9.09321Q10.287 9.21226 10.2176 9.32805Q10.1482 9.44384 10.0732 9.55608Q9.99825 9.66832 9.91784 9.77675Q9.83742 9.88518 9.75178 9.98953Q9.66615 10.0939 9.57549 10.1939Q9.48483 10.2939 9.38938 10.3894Q9.29393 10.4848 9.1939 10.5755Q9.09388 10.6661 8.98953 10.7518Q8.88518 10.8374 8.77675 10.9178Q8.66832 10.9983 8.55608 11.0732Q8.44384 11.1482 8.32805 11.2176Q8.21226 11.287 8.09321 11.3507Q7.97416 11.4143 7.85212 11.472Q7.73009 11.5298 7.60537 11.5814Q7.48066 11.6331 7.35356 11.6785Q7.22645 11.724 7.09727 11.7632Q6.96809 11.8024 6.83715 11.8352Q6.7062 11.868 6.5738 11.8943Q6.4414 11.9207 6.30787 11.9405Q6.17434 11.9603 6.04 11.9735Q5.90565 11.9868 5.77082 11.9934Q5.63599 12 5.501 12L5.499 12Q5.36401 12 5.22918 11.9934Q5.09435 11.9868 4.96 11.9735Q4.82566 11.9603 4.69213 11.9405Q4.5586 11.9207 4.4262 11.8943Q4.2938 11.868 4.16285 11.8352Q4.0319 11.8024 3.90272 11.7632Q3.77354 11.724 3.64644 11.6785Q3.51934 11.6331 3.39462 11.5814Q3.26991 11.5298 3.14787 11.472Q3.02584 11.4143 2.90679 11.3507Q2.78774 11.287 2.67195 11.2176Q2.55616 11.1482 2.44392 11.0732Q2.33168 10.9983 2.22325 10.9178Q2.11482 10.8374 2.01047 10.7518Q1.90612 10.6661 1.8061 10.5755Q1.70607 10.4848 1.61062 10.3894Q1.51517 10.2939 1.42451 10.1939Q1.33385 10.0939 1.24822 9.98953Q1.16258 9.88518 1.08216 9.77675Q1.00175 9.66832 0.926749 9.55608Q0.85175 9.44384 0.78235 9.32805Q0.71295 9.21226 0.649315 9.09321Q0.58568 8.97416 0.527963 8.85213Q0.470246 8.73009 0.418586 8.60538Q0.366927 8.48066 0.321449 8.35356Q0.275971 8.22645 0.236785 8.09727Q0.197599 7.96809 0.164798 7.83715Q0.131998 7.7062 0.105662 7.5738Q0.0793259 7.4414 0.0595184 7.30787Q0.0397108 7.17434 0.0264792 7.04Q0.0132476 6.90565 0.00662379 6.77082Q0 6.63599 0 6.501L0 5.499Q0 5.36401 0.00662379 5.22918Q0.0132476 5.09435 0.0264792 4.96Q0.0397108 4.82566 0.0595184 4.69213Q0.0793259 4.5586 0.105662 4.4262Q0.131998 4.2938 0.164798 4.16285Q0.197599 4.0319 0.236785 3.90272Q0.275971 3.77354 0.321449 3.64644Q0.366927 3.51934 0.418586 3.39462Q0.470246 3.26991 0.527963 3.14787Q0.58568 3.02584 0.649315 2.90679Q0.71295 2.78774 0.78235 2.67195Q0.85175 2.55616 0.926749 2.44392Q1.00175 2.33168 1.08216 2.22325Q1.16258 2.11482 1.24822 2.01047Q1.33385 1.90612 1.42451 1.8061Q1.51517 1.70607 1.61062 1.61062Q1.70607 1.51517 1.8061 1.42451Q1.90612 1.33385 2.01047 1.24822Q2.11482 1.16258 2.22325 1.08216Q2.33168 1.00175 2.44392 0.926749Q2.55616 0.85175 2.67195 0.78235Q2.78774 0.71295 2.90679 0.649315Q3.02584 0.58568 3.14787 0.527963Q3.26991 0.470246 3.39462 0.418586Q3.51934 0.366927 3.64644 0.321449Q3.77354 0.275971 3.90272 0.236785Q4.0319 0.197599 4.16285 0.164798Q4.2938 0.131998 4.4262 0.105662Q4.5586 0.0793259 4.69213 0.0595184Q4.82566 0.0397108 4.96 0.0264792Q5.09435 0.0132476 5.22918 0.00662379Q5.36401 0 5.499 0Z" transform="translate(84 47)" id="Rectangle-path" fill="#FDB797" fill-rule="evenodd" stroke="none" />
    <path d="M1.57898e-14 4.37094C3.32964 5.4941 7.00681 5.09944 10 3.29766C9.25296 1.3223 7.31048 0.00607999 5.13333 0L5.13333 0C2.53009 0.00861525 0.335485 1.87728 0 4.37094L1.57898e-14 4.37094Z" transform="translate(85 47)" id="Shape" fill="#000000" fill-opacity="0.1" fill-rule="evenodd" stroke="none" />
    <path d="M12.5 25C19.4036 25 25 19.4036 25 12.5C25 5.59644 19.4036 0 12.5 0C5.59644 0 0 5.59644 0 12.5C0 19.4036 5.59644 25 12.5 25Z" transform="translate(76 27)" id="Oval" fill="#FDB797" fill-rule="evenodd" stroke="none" />
    <path d="M7.46242 13.6476C6.67029 13.7443 5.86658 13.7004 5.09071 13.5182C4.32914 13.2505 3.64218 12.8155 3.08388 12.2473C1.41761 10.7 0.17702 8.63484 0.0158654 6.40499C-0.145289 4.17513 0.928061 1.81289 2.92577 0.706784C5.72317 -0.834702 9.28985 0.383189 11.9869 2.08353C14.3069 3.55441 17.077 5.44009 19.5703 4.2722C20.3882 3.88978 21.0207 3.21611 21.7656 2.71307C24.6451 0.756794 28.9325 1.72169 31.2829 4.25455C33.6333 6.78742 34.2931 10.4529 33.8887 13.8359C33.4843 17.2189 32.1464 20.4166 30.918 23.6055C30.7268 24.2347 30.4028 24.8187 29.9663 25.3205C28.4703 26.8061 25.6698 25.653 24.6847 23.8114C22.9728 20.6078 24.6847 15.0538 20.6406 13.1858C17.4206 11.7031 10.9196 13.4299 7.46242 13.6476Z" transform="translate(72 19)" id="Shape" fill="#000000" fill-opacity="0.1" fill-rule="evenodd" stroke="none" />
    <path d="M7.46242 13.6476C6.67029 13.7443 5.86658 13.7004 5.09071 13.5182C4.32914 13.2505 3.64218 12.8155 3.08388 12.2473C1.41761 10.7 0.17702 8.63484 0.0158654 6.40499C-0.145289 4.17513 0.928061 1.81289 2.92577 0.706784C5.72317 -0.834702 9.28985 0.383189 11.9869 2.08353C14.3069 3.55441 17.077 5.44009 19.5703 4.2722C20.3882 3.88978 21.0207 3.21611 21.7656 2.71307C24.6451 0.756794 28.9325 1.72169 31.2829 4.25455C33.6333 6.78742 34.2931 10.4529 33.8887 13.8359C33.4843 17.2189 32.1282 20.4166 30.9119 23.6055C30.7208 24.2347 30.3967 24.8187 29.9602 25.3205C28.4642 26.8061 25.6638 25.653 24.6786 23.8114C22.9667 20.6078 24.6786 15.0538 20.6345 13.1858C17.4297 11.7031 10.9166 13.4329 7.46242 13.6476Z" transform="translate(73 18)" id="Shape" fill="#333333" fill-rule="evenodd" stroke="none" />
    <path d="M1.5 5C2.32843 5 3 3.88071 3 2.5C3 1.11929 2.32843 0 1.5 0C0.671573 0 0 1.11929 0 2.5C0 3.88071 0.671573 5 1.5 5Z" transform="translate(94 37)" id="Oval" fill="#FDB797" fill-rule="evenodd" stroke="none" />
    <path d="M0 0L3 1.662L0 6L0 0L0 0Z" transform="translate(68 71)" id="Shape" fill="#000000" fill-opacity="0.1" fill-rule="evenodd" stroke="none" />
    <path d="M2.84135 0L0 2.63221L1.89303 5L3 2.36779L2.84135 0L2.84135 0Z" transform="translate(105 72)" id="Shape" fill="#000000" fill-opacity="0.1" fill-rule="evenodd" stroke="none" />
    <path d="M17 5.59905L17 8C17 8 0.422304 4.8019 0 0L10.941 0.800316L17 5.59905Z" transform="translate(73 53)" id="Shape" fill="#6696BB" fill-rule="evenodd" stroke="none" />
    <path d="M0 5.59905L0 8C0 8 16.5777 4.8019 17 0L6.05902 0.800316L0 5.59905Z" transform="translate(90 53)" id="Shape" fill="#6696BB" fill-rule="evenodd" stroke="none" />
    <path d="M0 0L55 12.7495L35.1381 21L0 0L0 0Z" transform="translate(192 84)" id="Shape" fill="#000000" fill-opacity="0.1" fill-rule="evenodd" stroke="none" />
    <path d="M0 4.99843C0 4.99843 0 0 3.33438 0C6.66876 0 10 10 10 10L0 4.99843Z" transform="translate(73 48)" id="Shape" fill="#6696BB" fill-rule="evenodd" stroke="none" />
    <path d="M1.5 3C2.32843 3 3 2.32843 3 1.5C3 0.671573 2.32843 0 1.5 0C0.671573 0 0 0.671573 0 1.5C0 2.32843 0.671573 3 1.5 3Z" transform="translate(2 86)" id="Oval" fill="#F55F44" fill-opacity="0.5" fill-rule="evenodd" stroke="none" />
    <path d="M1.5 3C2.32843 3 3 2.32843 3 1.5C3 0.671573 2.32843 0 1.5 0C0.671573 0 0 0.671573 0 1.5C0 2.32843 0.671573 3 1.5 3Z" transform="translate(27 136)" id="Oval" fill="#F55F44" fill-opacity="0.5" fill-rule="evenodd" stroke="none" />
    <path d="M1.5 3C2.32843 3 3 2.32843 3 1.5C3 0.671573 2.32843 0 1.5 0C0.671573 0 0 0.671573 0 1.5C0 2.32843 0.671573 3 1.5 3Z" transform="translate(250 3)" id="Oval" fill="#F55F44" fill-opacity="0.5" fill-rule="evenodd" stroke="none" />
    <path d="M4.59589 2.54203C3.95611 2.26362 3.62642 1.55061 3.82896 0.883402C3.84472 0.834095 3.8545 0.783077 3.85808 0.731441L3.85808 0.731441C3.87698 0.427705 3.6941 0.147589 3.40826 0.0424519C3.12243 -0.0626849 2.80142 0.0320881 2.61868 0.275561L2.61868 0.275561C2.58739 0.317519 2.56131 0.363117 2.54102 0.411355C2.26136 1.04775 1.55012 1.37531 0.884174 1.17439C0.834825 1.15864 0.783762 1.14887 0.732081 1.14529L0.732081 1.14529C0.428079 1.12641 0.147718 1.30913 0.0424891 1.59471C-0.0627397 1.8803 0.0321162 2.20103 0.275802 2.38361L0.275802 2.38361C0.317797 2.41487 0.363435 2.44093 0.411715 2.4612C1.04614 2.74294 1.37091 3.45293 1.16894 4.1166C1.15318 4.1659 1.14341 4.21692 1.13982 4.26856L1.13982 4.26856C1.12092 4.5723 1.3038 4.85241 1.58964 4.95755C1.87547 5.06269 2.19648 4.96791 2.37922 4.72444L2.37922 4.72444C2.41051 4.68248 2.43659 4.63688 2.45688 4.58864C2.73553 3.94942 3.44917 3.62001 4.11696 3.82238C4.16631 3.83812 4.21738 3.84789 4.26906 3.85148L4.26906 3.85148C4.57187 3.86978 4.85106 3.68812 4.95676 3.40402C5.06246 3.11991 4.96982 2.80016 4.72857 2.61639L4.72857 2.61639C4.68743 2.58648 4.64289 2.56152 4.59589 2.54203L4.59589 2.54203Z" transform="translate(148 5)" id="Shape" fill="#4D8AF0" fill-opacity="0.5" fill-rule="evenodd" stroke="none" />
    <path d="M4.58918 2.53875C3.95077 2.2607 3.6218 1.54861 3.8239 0.882261C3.83962 0.833018 3.84938 0.782066 3.85296 0.730497L3.85296 0.730497C3.87181 0.427153 3.68933 0.147398 3.40412 0.0423971C3.1189 -0.0626039 2.79858 0.0320467 2.61624 0.275205L2.61624 0.275205C2.58502 0.317109 2.559 0.362648 2.53875 0.410824C2.2607 1.04923 1.54861 1.3782 0.882261 1.1761C0.833018 1.16038 0.782066 1.15062 0.730497 1.14704L0.730497 1.14704C0.427153 1.12819 0.147398 1.31067 0.0423971 1.59588C-0.0626039 1.8811 0.0320467 2.20142 0.275205 2.38376L0.275205 2.38376C0.317109 2.41498 0.362648 2.441 0.410824 2.46125C1.04923 2.7393 1.3782 3.45139 1.1761 4.11774C1.16038 4.16698 1.15062 4.21793 1.14704 4.2695L1.14704 4.2695C1.12819 4.57285 1.31067 4.8526 1.59588 4.9576C1.8811 5.0626 2.20142 4.96795 2.38376 4.7248L2.38376 4.7248C2.41498 4.68289 2.441 4.63735 2.46125 4.58918C2.7393 3.95077 3.45139 3.6218 4.11774 3.8239C4.16698 3.83962 4.21793 3.84938 4.2695 3.85296L4.2695 3.85296C4.57285 3.87181 4.8526 3.68933 4.9576 3.40412C5.0626 3.1189 4.96795 2.79858 4.7248 2.61624L4.7248 2.61624C4.68289 2.58502 4.63735 2.559 4.58918 2.53875Z" transform="translate(250 132)" id="Shape" fill="#4D8AF0" fill-opacity="0.5" fill-rule="evenodd" stroke="none" />
    <path d="M1.5 3C2.32843 3 3 2.32843 3 1.5C3 0.671573 2.32843 0 1.5 0C0.671573 0 0 0.671573 0 1.5C0 2.32843 0.671573 3 1.5 3Z" transform="translate(175 192)" id="Oval" fill="#47E6B1" fill-opacity="0.5" fill-rule="evenodd" stroke="none" />
    <path d="M1.5 3C2.32843 3 3 2.32843 3 1.5C3 0.671573 2.32843 0 1.5 0C0.671573 0 0 0.671573 0 1.5C0 2.32843 0.671573 3 1.5 3Z" transform="translate(2 178)" id="Oval" fill="#47E6B1" fill-opacity="0.5" fill-rule="evenodd" stroke="none" />
    <path d="M1.5 3C2.32843 3 3 2.32843 3 1.5C3 0.671573 2.32843 0 1.5 0C0.671573 0 0 0.671573 0 1.5C0 2.32843 0.671573 3 1.5 3Z" transform="translate(169 26)" id="Oval" fill="#47E6B1" fill-opacity="0.5" fill-rule="evenodd" stroke="none" />
    <g id="Group" opacity="0.5">
      <path d="M0 0L1.041 0L1.041 5.895L0 5.895L0 0Z" transform="translate(2.427 0)" id="Rectangle-path" fill="#47E6B1" fill-rule="evenodd" stroke="none" />
      <path d="M0 0L1.041 0L1.041 5.895L0 5.895L0 0Z" transform="matrix(-4.371139E-08 1 -1 -4.371139E-08 5.895 2.427)" id="Rectangle-path" fill="#47E6B1" fill-rule="evenodd" stroke="none" />
    </g>
    <g id="Group" transform="translate(19 57)" opacity="0.5">
      <path d="M0 0L0.991429 0L0.991429 5.61429L0 5.61429L0 0Z" transform="translate(2.48 0.12857144)" id="Rectangle-path" fill="#47E6B1" fill-rule="evenodd" stroke="none" />
      <path d="M0 0L0.991429 0L0.991429 5.61429L0 5.61429L0 0Z" transform="matrix(-4.371139E-08 1 -1 -4.371139E-08 5.782857 2.44)" id="Rectangle-path" fill="#47E6B1" fill-rule="evenodd" stroke="none" />
    </g>
    <g id="Group" transform="translate(210 31)" opacity="0.5">
      <path d="M0 0L1.041 0L1.041 5.895L0 5.895L0 0Z" transform="translate(3.268 0.015)" id="Rectangle-path" fill="#47E6B1" fill-rule="evenodd" stroke="none" />
      <path d="M0 0L1.041 0L1.041 5.895L0 5.895L0 0Z" transform="matrix(-4.371139E-08 1 -1 -4.371139E-08 6.739 2.4420002)" id="Rectangle-path" fill="#47E6B1" fill-rule="evenodd" stroke="none" />
    </g>
  </g>
</svg>