<?xml version="1.0" encoding="utf-8"?>
<svg width="282px" height="231px" viewBox="0 0 282 231" version="1.1" xmlns:xlink="http://www.w3.org/1999/xlink" xmlns="http://www.w3.org/2000/svg">
  <desc>Created with Lunacy</desc>
  <defs>
    <linearGradient x1="0.49998444" y1="1" x2="0.49998444" y2="0" id="gradient_1">
      <stop offset="0" stop-color="#808080" stop-opacity="0.2509804" />
      <stop offset="0.54" stop-color="#808080" stop-opacity="0.12156863" />
      <stop offset="1" stop-color="#808080" stop-opacity="0.101960786" />
    </linearGradient>
    <linearGradient x1="569.83" y1="551.49" x2="569.83" y2="380.82" id="gradient_2">
      <stop offset="0" stop-color="#808080" stop-opacity="0.2509804" />
      <stop offset="0.54" stop-color="#808080" stop-opacity="0.12156863" />
      <stop offset="1" stop-color="#808080" stop-opacity="0.101960786" />
    </linearGradient>
    <linearGradient x1="171.5" y1="319.2" x2="171.5" y2="319.02" id="gradient_3">
      <stop offset="0" stop-color="#808080" stop-opacity="0.2509804" />
      <stop offset="0.54" stop-color="#808080" stop-opacity="0.12156863" />
      <stop offset="1" stop-color="#808080" stop-opacity="0.101960786" />
    </linearGradient>
    <linearGradient x1="228.01" y1="853.75" x2="228.01" y2="250.26" id="gradient_4">
      <stop offset="0" stop-color="#808080" stop-opacity="0.2509804" />
      <stop offset="0.54" stop-color="#808080" stop-opacity="0.12156863" />
      <stop offset="1" stop-color="#808080" stop-opacity="0.101960786" />
    </linearGradient>
    <linearGradient x1="944.05" y1="849.94" x2="944.05" y2="268.42" id="gradient_5">
      <stop offset="0" stop-color="#808080" stop-opacity="0.2509804" />
      <stop offset="0.54" stop-color="#808080" stop-opacity="0.12156863" />
      <stop offset="1" stop-color="#808080" stop-opacity="0.101960786" />
    </linearGradient>
  </defs>
  <g id="undraw_analysis_4jis">
    <path d="M48.5 16C75.2858 16 97 12.4183 97 8C97 3.58172 75.2858 0 48.5 0C21.7142 0 0 3.58172 0 8C0 12.4183 21.7142 16 48.5 16Z" transform="translate(0 215)" id="Oval" fill="#6C63FF" fill-opacity="0.1" fill-rule="evenodd" stroke="none" />
    <path d="M48.5 16C75.2858 16 97 12.4183 97 8C97 3.58172 75.2858 0 48.5 0C21.7142 0 0 3.58172 0 8C0 12.4183 21.7142 16 48.5 16Z" transform="translate(185 212)" id="Oval" fill="#6C63FF" fill-opacity="0.1" fill-rule="evenodd" stroke="none" />
    <path d="M58.1757 0.122456C45.5008 0.802022 32.6937 4.51478 22.8046 12.4955C14.1278 19.5012 7.87033 30.5151 9.39682 41.5816C11.1989 54.6453 22.8239 64.1481 27.1361 76.6096C29.9108 84.6208 29.4782 93.4607 27.6624 101.748C26.4941 107.088 24.6976 112.433 21.245 116.665C15.0261 124.279 3.80336 127.953 0.747616 137.304C-2.5754 147.472 5.79827 157.445 13.6649 164.677C19.9445 170.448 26.5216 176.191 34.4352 179.354C40.2215 181.669 46.5011 182.501 52.7255 182.832C69.9136 183.736 87.098 180.983 103.149 174.755C110.84 171.763 118.279 167.97 126.328 166.166C143.48 162.321 161.129 167.865 178.512 170.462C193.414 172.681 208.558 172.726 223.472 170.594C232.857 169.252 242.553 166.829 249.621 160.497C256.785 154.069 260.367 144.119 259.97 134.478C259.573 124.837 255.518 115.555 249.544 107.986C241.829 98.2094 231.187 91.2535 221.929 82.9219C212.502 74.4337 204.483 64.4952 198.172 53.4795C194.535 47.1258 191.441 40.3826 186.729 34.7887C179.38 26.0703 168.722 20.8852 158.073 16.8796C133.506 7.65294 108.024 5.77446 82.4094 1.69706C74.405 0.41804 66.2848 -0.302964 58.1757 0.122456Z" transform="translate(17 0)" id="Shape" fill="#6C63FF" fill-opacity="0.1" fill-rule="evenodd" stroke="none" />
    <g id="Group" transform="translate(71 20)" opacity="0.7">
      <path d="M0 0L52.3304 0L52.3304 29.4647L0 29.4647L0 0Z" transform="translate(0.14798076 81.485596)" id="Rectangle-path" fill="#F6F7F9" fill-rule="evenodd" stroke="none" />
      <g id="Group" transform="translate(4.3846154 88.910446)" opacity="0.2">
        <path d="M5.44788 10.9785C8.45667 10.9785 10.8958 8.52088 10.8958 5.48925C10.8958 2.45762 8.45667 0 5.44788 0C2.4391 0 0 2.45762 0 5.48925C0 8.52088 2.4391 10.9785 5.44788 10.9785Z" transform="translate(0.16716346 0.16567165)" id="Oval" fill="#6C63FF" fill-rule="evenodd" stroke="none" />
      </g>
      <g id="Group" transform="translate(21.923077 87.80597)" opacity="0.2">
        <path d="M0 0L23.7372 0L23.7372 1.50485L0 1.50485L0 0Z" transform="translate(0.16716346 0.25402984)" id="Rectangle-path" fill="#6C63FF" fill-rule="evenodd" stroke="none" />
      </g>
      <g id="Group" transform="translate(21.923077 91.67164)" opacity="0.2">
        <path d="M0 0L12.0933 0L12.0933 1.50485L0 1.50485L0 0Z" transform="translate(0.16716346 0.22365671)" id="Rectangle-path" fill="#6C63FF" fill-rule="evenodd" stroke="none" />
      </g>
      <g id="Group" transform="translate(21.923077 95.537315)" opacity="0.2">
        <path d="M0 0L19.5581 0L19.5581 1.50485L0 1.50485L0 0Z" transform="translate(0.16716346 0.19328359)" id="Rectangle-path" fill="#6C63FF" fill-rule="evenodd" stroke="none" />
      </g>
      <g id="Group" transform="translate(21.923077 99.402985)" opacity="0.2">
        <path d="M0 0L23.7372 0L23.7372 1.50485L0 1.50485L0 0Z" transform="translate(0.16716346 0.16291045)" id="Rectangle-path" fill="#6C63FF" fill-rule="evenodd" stroke="none" />
      </g>
      <g id="Group" transform="translate(39.1875 104.92538)" opacity="0.2">
        <path d="M0 0L6.5687 0L6.5687 2.90754L0 2.90754L0 0Z" transform="translate(0.07399038 0.17671642)" id="Rectangle-path" fill="#6C63FF" fill-rule="evenodd" stroke="none" />
      </g>
      <path d="M0 0L52.3304 0L52.3304 29.4647L0 29.4647L0 0Z" transform="translate(44.205143 0.055223882)" id="Rectangle-path" fill="#F6F7F9" fill-rule="evenodd" stroke="none" />
      <g id="Group" transform="translate(48.504807 7.455224)" opacity="0.2">
        <path d="M5.44788 10.9785C8.45667 10.9785 10.8958 8.52088 10.8958 5.48925C10.8958 2.45762 8.45667 0 5.44788 0C2.4391 0 0 2.45762 0 5.48925C0 8.52088 2.4391 10.9785 5.44788 10.9785Z" transform="translate(0.106875 0.19052239)" id="Oval" fill="#6C63FF" fill-rule="evenodd" stroke="none" />
      </g>
      <g id="Group" transform="translate(66.04327 6.626866)" opacity="0.2">
        <path d="M0 0L23.7372 0L23.7372 1.50485L0 1.50485L0 0Z" transform="translate(0.106875 0.002761194)" id="Rectangle-path" fill="#6C63FF" fill-rule="evenodd" stroke="none" />
      </g>
      <g id="Group" transform="translate(66.04327 10.216418)" opacity="0.2">
        <path d="M0 0L12.0933 0L12.0933 1.50485L0 1.50485L0 0Z" transform="translate(0.106875 0.24850747)" id="Rectangle-path" fill="#6C63FF" fill-rule="evenodd" stroke="none" />
      </g>
      <g id="Group" transform="translate(66.04327 14.082089)" opacity="0.2">
        <path d="M0 0L19.5581 0L19.5581 1.50485L0 1.50485L0 0Z" transform="translate(0.106875 0.21813433)" id="Rectangle-path" fill="#6C63FF" fill-rule="evenodd" stroke="none" />
      </g>
      <g id="Group" transform="translate(66.04327 17.947762)" opacity="0.2">
        <path d="M0 0L23.7372 0L23.7372 1.50485L0 1.50485L0 0Z" transform="translate(0.106875 0.19052239)" id="Rectangle-path" fill="#6C63FF" fill-rule="evenodd" stroke="none" />
      </g>
      <g id="Group" transform="translate(83.30769 23.47015)" opacity="0.2">
        <path d="M0 0L6.5687 0L6.5687 2.90754L0 2.90754L0 0Z" transform="translate(0.010961538 0.20156716)" id="Rectangle-path" fill="#6C63FF" fill-rule="evenodd" stroke="none" />
      </g>
      <path d="M0 0L52.3304 0L52.3304 29.4647L0 29.4647L0 0Z" transform="translate(61.623028 49.524776)" id="Rectangle-path" fill="#F6F7F9" fill-rule="evenodd" stroke="none" />
      <g id="Group" transform="translate(65.76923 56.880596)" opacity="0.2">
        <path d="M5.44788 10.9785C8.45667 10.9785 10.8958 8.52088 10.8958 5.48925C10.8958 2.45762 8.45667 0 5.44788 0C2.4391 0 0 2.45762 0 5.48925C0 8.52088 2.4391 10.9785 5.44788 10.9785Z" transform="translate(0.25759616 0.23746268)" id="Oval" fill="#6C63FF" fill-rule="evenodd" stroke="none" />
      </g>
      <g id="Group" transform="translate(83.30769 56.05224)" opacity="0.2">
        <path d="M0 0L23.7372 0L23.7372 1.50485L0 1.50485L0 0Z" transform="translate(0.26033655 0.049701493)" id="Rectangle-path" fill="#6C63FF" fill-rule="evenodd" stroke="none" />
      </g>
      <g id="Group" transform="translate(83.30769 59.91791)" opacity="0.2">
        <path d="M0 0L12.0933 0L12.0933 1.50485L0 1.50485L0 0Z" transform="translate(0.26033655 0.019328358)" id="Rectangle-path" fill="#6C63FF" fill-rule="evenodd" stroke="none" />
      </g>
      <g id="Group" transform="translate(83.30769 63.50746)" opacity="0.2">
        <path d="M0 0L19.5581 0L19.5581 1.50485L0 1.50485L0 0Z" transform="translate(0.26033655 0.26507464)" id="Rectangle-path" fill="#6C63FF" fill-rule="evenodd" stroke="none" />
      </g>
      <g id="Group" transform="translate(83.30769 67.37313)" opacity="0.2">
        <path d="M0 0L23.7372 0L23.7372 1.50485L0 1.50485L0 0Z" transform="translate(0.26033655 0.2347015)" id="Rectangle-path" fill="#6C63FF" fill-rule="evenodd" stroke="none" />
      </g>
      <g id="Group" transform="translate(100.57211 72.89552)" opacity="0.2">
        <path d="M0 0L6.5687 0L6.5687 2.90754L0 2.90754L0 0Z" transform="translate(0.16442308 0.24850747)" id="Rectangle-path" fill="#6C63FF" fill-rule="evenodd" stroke="none" />
      </g>
    </g>
    <path d="M0 0L88 0L88 50L0 50L0 0Z" transform="translate(53 37)" id="Rectangle-path" fill="url(#gradient_1)" fill-rule="evenodd" stroke="none" />
    <path d="M0 0L87 0L87 49L0 49L0 0Z" transform="translate(53 38)" id="Rectangle-path" fill="#F6F7F9" fill-rule="evenodd" stroke="none" />
    <g id="Group" transform="translate(61 51)" opacity="0.2">
      <path d="M9.34687 18.6937C14.509 18.6937 18.6937 14.509 18.6937 9.34687C18.6937 4.18473 14.509 0 9.34687 0C4.18473 0 0 4.18473 0 9.34687C0 14.509 4.18473 18.6937 9.34687 18.6937Z" transform="translate(0.22402985 0.15597016)" id="Oval" fill="#6C63FF" fill-rule="evenodd" stroke="none" />
    </g>
    <g id="Group" transform="translate(90 49)" opacity="0.2">
      <path d="M0 0L39.6193 0L39.6193 2.709L0 2.709L0 0Z" transform="translate(0.2537931 0.132)" id="Rectangle-path" fill="#6C63FF" fill-rule="evenodd" stroke="none" />
    </g>
    <g id="Group" transform="translate(90 55)" opacity="0.2">
      <path d="M0 0L20.4848 0L20.4848 2.709L0 2.709L0 0Z" transform="translate(0.2576 0.144)" id="Rectangle-path" fill="#6C63FF" fill-rule="evenodd" stroke="none" />
    </g>
    <g id="Group" transform="translate(90 62)" opacity="0.2">
      <path d="M0 0L32.5407 0L32.5407 2.709L0 2.709L0 0Z" transform="translate(0.253 0.153)" id="Rectangle-path" fill="#6C63FF" fill-rule="evenodd" stroke="none" />
    </g>
    <g id="Group" transform="translate(90 68)" opacity="0.2">
      <path d="M0 0L39.6193 0L39.6193 2.709L0 2.709L0 0Z" transform="translate(0.2537931 0.162)" id="Rectangle-path" fill="#6C63FF" fill-rule="evenodd" stroke="none" />
    </g>
    <path d="M0 0L11 0L11 4L0 4L0 0Z" transform="translate(119 77)" id="Rectangle-path" fill="#6696BB" fill-rule="evenodd" stroke="none" />
    <path d="M0 0L84 0L84 47L0 47L0 0Z" transform="translate(115 105)" id="Rectangle-path" fill="url(#gradient_2)" fill-rule="evenodd" stroke="none" />
    <path d="M0 0L83 0L83 46L0 46L0 0Z" transform="translate(116 105)" id="Rectangle-path" fill="#F6F7F9" fill-rule="evenodd" stroke="none" />
    <g id="Group" transform="translate(122 117)" opacity="0.2">
      <path d="M8.82 17.64C13.6912 17.64 17.64 13.6912 17.64 8.82C17.64 3.94885 13.6912 0 8.82 0C3.94885 0 0 3.94885 0 8.82C0 13.6912 3.94885 17.64 8.82 17.64Z" transform="translate(0.163125 0.10125)" id="Oval" fill="#6C63FF" fill-rule="evenodd" stroke="none" />
    </g>
    <g id="Group" transform="translate(150 116)" opacity="0.2">
      <path d="M0 0L37.6228 0L37.6228 2.577L0 2.577L0 0Z" transform="translate(0.14869565 0.165)" id="Rectangle-path" fill="#6C63FF" fill-rule="evenodd" stroke="none" />
    </g>
    <g id="Group" transform="translate(150 122)" opacity="0.2">
      <path d="M0 0L18.6254 0L18.6254 2.577L0 2.577L0 0Z" transform="translate(0.14450704 0.141)" id="Rectangle-path" fill="#6C63FF" fill-rule="evenodd" stroke="none" />
    </g>
    <g id="Group" transform="translate(150 128)" opacity="0.2">
      <path d="M0 0L30.6111 0L30.6111 1.90889L0 1.90889L0 0Z" transform="translate(0.1468421 0.08444444)" id="Rectangle-path" fill="#6C63FF" fill-rule="evenodd" stroke="none" />
    </g>
    <g id="Group" transform="translate(150 134)" opacity="0.2">
      <path d="M0 0L37.6228 0L37.6228 1.90889L0 1.90889L0 0Z" transform="translate(0.14869565 0.064444445)" id="Rectangle-path" fill="#6C63FF" fill-rule="evenodd" stroke="none" />
    </g>
    <g id="Group" transform="translate(177.09229 142.25278)" opacity="0.5">
      <path d="M0 0L9.69487 0L9.69487 4.61389L0 4.61389L0 0Z" id="Rectangle-path" fill="#6696BB" fill-opacity="0.79" fill-rule="evenodd" stroke="none" />
    </g>
    <g id="Group" transform="translate(22 79)" opacity="0.1">
      <path d="M0 0.00383201L0.185 0.043832C0.130959 0.00676789 0.0645258 -0.00759605 0 0.00383201Z" transform="translate(0.215 0.22616799)" id="Shape" fill="url(#gradient_3)" fill-rule="evenodd" stroke="none" />
    </g>
    <path d="M55.4692 50.8685C54.86 46.7867 51.1441 37.2644 51.1441 37.2644L51.1441 37.2644C51.0779 36.9893 51.0063 36.6978 50.9236 36.4172C48.2855 27.3707 44.6357 26.5703 44.6357 26.5703L31.5611 23.7895C31.669 23.857 31.7627 23.9448 31.8368 24.0481L31.63 24.0811C31.03 23.3749 30.6336 22.5192 30.4833 21.6056C30.4585 21.4708 30.4364 21.3306 30.4199 21.1875C32.321 19.3402 33.3293 16.7632 33.1856 14.1193C33.042 11.4753 31.7603 9.0223 29.6701 7.3909C29.535 7.28363 29.3944 7.18186 29.2511 7.08009C29.8686 6.42821 29.8879 5.51779 29.4275 4.60461C28.3965 2.46745 26.1582 1.11695 23.8536 0.459571C22.0949 -0.0437758 20.1873 -0.206057 18.4451 0.344048C17.45 0.657608 16.5458 1.18846 15.6141 1.6533C13.8774 2.51971 11.9643 3.2046 10.6522 4.62662C10.3462 4.95943 10.0678 5.38301 10.156 5.82035C10.2249 6.14766 10.4813 6.39796 10.6494 6.68951C11.0216 7.33864 10.9251 8.15554 10.6743 8.86243C10.4234 9.56931 10.043 10.2377 9.86381 10.9528C9.68463 11.668 9.7563 12.5316 10.3021 13.0487C10.5673 13.2558 10.8433 13.4486 11.1291 13.6263C11.4286 13.8793 11.6912 14.1728 11.9092 14.4983L13.4584 16.5859C14.1816 17.5114 14.827 18.4948 15.3881 19.5262C15.7712 20.2826 16.0717 21.094 16.5872 21.7706C16.7388 21.9719 16.9117 22.1563 17.1027 22.3208C17.0531 22.3015 17.0007 22.285 16.9511 22.263C17.4124 22.7118 18.0384 22.9515 18.6822 22.9259L18.7594 22.9259C18.8776 22.924 18.9907 22.8778 19.0764 22.7966L19.0764 23.0716C19.104 24.0756 19.1012 25.1428 19.0296 26.144L18.9083 26.0835C18.5416 25.8998 18.1012 25.9459 17.7808 26.2017L5.73716 35.8286C5.73716 35.8286 3.12113 39.4043 3.485 45.5655L1.3762 54.8127C1.3762 54.8127 -1.26188 62.66 0.766983 68.2628C2.79585 73.8656 3.97293 77.0645 3.97293 77.0645C3.97293 77.0645 4.78337 83.4292 6.00179 83.9408C7.22022 84.4524 7.74673 84.7439 7.74673 84.7439L7.98931 86.265L7.98931 86.265C7.98931 86.265 8.06925 86.4108 8.2126 86.6638C9.10023 88.2014 12.3834 93.6309 14.2937 93.0533C14.5323 94.5271 14.6366 96.0193 14.6052 97.5119L16.4907 110.164C16.4907 110.164 17.8084 113.605 17.7284 115.407C17.6485 117.208 19.2694 119.772 19.2694 119.772C18.2854 121.568 17.9969 123.661 18.4589 125.655C19.2308 129.019 20.2039 144.549 20.2039 144.549L21.6235 148.311L21.5822 152.712C21.4646 153.427 21.1646 154.1 20.7111 154.665C19.7959 155.655 19.8565 156.799 17.6788 158.15C15.5011 159.501 14.0952 160.009 14.0952 161.811C14.0927 162.06 14.0706 162.308 14.0291 162.554C13.8251 163.871 13.4309 164.581 17.4748 164.966C22.2217 165.414 25.3863 162.323 25.3863 162.323C25.3863 162.323 26.0837 161.06 29.3724 160.551C29.3724 160.551 30.4943 160.491 30.5577 159.498C30.5798 159.157 30.5743 158.502 30.5439 157.781C30.4916 156.406 30.3592 154.805 30.1856 154.726C29.9678 154.629 29.5819 153.246 29.4496 152.745L30.3647 152.745C30.3647 152.745 31.2165 146.38 30.3647 142.255C29.513 138.129 30.2848 135.211 30.2848 135.211L30.1222 124.324C30.1222 124.324 28.9727 123.161 29.8741 121.043C30.7755 118.925 29.8741 108.434 29.8741 108.434C29.8741 108.434 30.2021 104.672 31.1338 103.791C32.0656 102.911 31.1807 98.2765 31.1338 98.0345L32.7878 103.591C32.7878 103.591 33.5183 114.639 35.062 116.642L35.5086 121.642C35.5086 121.642 38.6732 126.247 38.064 128.73C37.4548 131.214 38.7145 140.178 38.7145 140.178L38.7145 149.346C38.7145 149.346 37.2921 153.029 39.2824 154.349L40.1397 154.316C39.8475 154.591 39.638 154.973 39.3127 155.311C38.9323 155.702 38.7173 157.187 38.596 158.464C38.494 159.545 38.4609 160.474 38.4609 160.474C38.4609 160.474 39.3127 161.825 40.895 161.915C42.4773 162.006 47.7121 166 47.7121 166C47.7121 166 52.889 166 54.226 165.725L54.3059 165.706C54.7354 165.569 55.0963 165.274 55.3149 164.881C55.5846 164.425 55.6722 163.885 55.5602 163.368C55.392 162.578 54.7663 161.717 53.3742 160.978C49.9036 159.148 49.3881 157.438 49.3881 157.438L47.1139 154.038L47.4392 154.038C47.4392 154.038 47.238 150.435 49.7107 146.391L49.5508 128.579C49.5508 128.579 50.5625 122.454 48.8203 119.131C48.8203 119.131 48.6769 115.608 49.843 114.527C51.009 113.446 48.291 102.518 48.291 102.518C48.291 102.518 47.7397 96.6537 47.0671 91.3012L47.0671 91.3012C49.8044 93.8922 52.6465 84.5597 53.1316 82.9011L53.2033 82.9011C53.2033 82.9011 53.1895 82.8571 53.1702 82.7801C53.1509 82.7031 53.2033 82.6618 53.2033 82.6618L53.2033 82.6618C53.2033 82.648 52.5968 80.5026 53.0407 80.94C53.4845 81.3773 54.5844 79.7407 54.5844 79.7407C54.5844 79.7407 54.4217 70.8125 56.3293 66.3127C58.2369 61.8128 55.4692 50.8685 55.4692 50.8685ZM47.3124 56.5483L47.3262 56.5235C47.6019 61.9751 47.2711 73.6071 47.2711 73.6071C47.2711 73.6071 46.8962 75.0979 46.4937 76.8527L46.2043 65.8011L46.2043 65.8011L45.9286 55.3931L47.3124 56.5483ZM12.3778 52.7911C12.3778 52.7911 13.7561 70.0039 12.3778 72.4849C11.9836 73.1917 11.6556 74.4487 11.3827 75.8873C10.9279 74.6935 9.96305 71.8907 10.3076 70.4055C10.7542 68.4801 9.41448 63.4384 9.41448 63.3201C9.41448 63.2018 9.29319 60.5173 10.2663 58.4544C11.2394 56.3915 10.5916 55.5114 10.5916 55.5114C10.5916 55.5114 11.4048 52.1502 12.3778 52.7911Z" transform="translate(10 60)" id="Shape" fill="url(#gradient_4)" stroke="none" />
    <path d="M6.79623 8.28161C5.67809 13.3886 1.22096 5.66412 0.205635 3.81162L0 3.42779L0.483242 1.07951L3.03825 0C3.44184 0.218862 3.82405 0.477732 4.17953 0.772986C5.58555 1.90314 7.65989 4.32606 6.79623 8.28161Z" transform="translate(19 143)" id="Shape" fill="#EFB7B9" fill-rule="evenodd" stroke="none" />
    <path d="M8 1.30066L7.9692 1.41456C7.9692 1.449 7.944 1.48874 7.93 1.53907C7.45399 3.12847 4.62313 12.045 1.89026 9.56818C-1.1002 6.85031 0.353031 0.609269 0.353031 0.609269L0.381032 0.609269L6.67277 0L7.9188 1.21324L7.9188 1.21324L8 1.30066Z" transform="translate(55 142)" id="Shape" fill="#EFB7B9" fill-rule="evenodd" stroke="none" />
    <path d="M38.416 46.3336L38.5753 64.0681C36.1146 68.0961 36.3131 71.6827 36.3131 71.6827L28.2038 72C26.224 70.6867 27.6445 67.0201 27.6445 67.0201L27.6445 57.8908C27.6445 57.8908 26.3778 48.9684 26.9818 46.4853C27.5858 44.0023 24.4371 39.4307 24.4371 39.4307L23.9953 34.4509C22.4573 32.4589 21.7303 21.4563 21.7303 21.4563L20.0776 15.9384C20.1196 16.1784 20.9781 20.8162 20.0776 21.6687C19.1772 22.5212 18.8249 26.2927 18.8249 26.2927C18.8249 26.2927 19.7141 36.7353 18.8249 38.8458C17.9356 40.9564 19.0654 42.1566 19.0654 42.1566L19.2304 52.9964C19.2304 52.9964 18.4614 55.9071 19.3086 60.0124C20.1559 64.1177 19.3086 70.455 19.3086 70.455L10.5841 70.455L10.6233 66.0407L9.21111 62.2941C9.21111 62.2941 8.24078 46.8302 7.47459 43.4836C7.01406 41.4986 7.30027 39.416 8.27993 37.6236C8.27993 37.6236 6.66645 35.0716 6.74754 33.2783C6.82863 31.485 5.51436 28.0584 5.51436 28.0584L3.63523 15.4638C3.68815 13.0406 3.37526 10.623 2.70685 8.29061C1.61348 4.70399 0 0 0 0L1.82321 0.160018L11.0287 0.968387C11.0287 0.968387 33.3993 -0.515921 34.4088 0.717324C34.6213 1.11985 34.7649 1.55426 34.8339 2.00299C35.8377 6.45867 37.166 20.4079 37.166 20.4079C37.166 20.4079 39.8728 31.2891 38.7096 32.3651C37.5463 33.4411 37.6917 36.9477 37.6917 36.9477C39.4254 40.2364 38.416 46.3336 38.416 46.3336Z" transform="translate(22 143)" id="Shape" fill="#444053" fill-rule="evenodd" stroke="none" />
    <path d="M15.9876 8.46654C15.9255 9.46044 14.846 9.52151 14.846 9.52151C11.6885 10.0323 11.0192 11.2983 11.0192 11.2983C11.0192 11.2983 7.97767 14.3938 3.42216 13.9579C-0.461362 13.5748 -0.0862339 12.8474 0.113475 11.5426C0.153236 11.2967 0.173991 11.0479 0.175546 10.7986C0.175546 8.99403 1.52493 8.48042 3.62726 7.1284C5.7296 5.77637 5.67293 4.62979 6.55003 3.63867C7.42712 2.64755 7.51618 0.72362 7.51618 0.72362C8.50933 -1.05317 11.0246 1.00124 11.0246 1.00124C11.1406 1.63145 14.8838 1.55649 14.8838 1.55649C14.8838 1.55649 15.3804 3.60258 15.6341 3.72196C15.8014 3.80247 15.9282 5.40713 15.9795 6.77582C16.0038 7.46988 16.0065 8.12784 15.9876 8.46654Z" transform="translate(24 212)" id="Shape" fill="#B07473" fill-rule="evenodd" stroke="none" />
    <path d="M15.988 1.66491C15.9259 2.62318 14.8464 2.68206 14.8464 2.68206C11.6888 3.17458 11.0195 4.39516 11.0195 4.39516C11.0195 4.39516 7.97788 7.37969 3.42225 6.95945C-0.461374 6.59006 -0.0862362 5.88876 0.113478 4.63071C1.84883 5.05898 5.16839 5.65321 7.10616 4.6093C9.80499 3.15852 11.7293 2.14405 11.7293 2.14405L15.9745 0C16.0042 0.703975 16.0069 1.33836 15.988 1.66491Z" transform="translate(24 218)" id="Shape" fill="#000000" fill-opacity="0.1" fill-rule="evenodd" stroke="none" />
    <path d="M16.7118 12.8575C16.498 13.2581 16.1388 13.5598 15.7093 13.6996C15.684 13.7088 15.6579 13.7154 15.6313 13.7193C14.303 14 9.17327 14 9.17327 14C9.17327 14 3.97397 9.94085 2.41446 9.84821C0.854947 9.75558 0 8.38849 0 8.38849C0 8.38849 0.0306333 7.44528 0.130888 6.35049C0.253421 5.05639 0.467854 3.54333 0.843807 3.15595C1.54002 2.42608 1.67926 1.42393 3.25827 2.06115C3.25827 2.06115 5.48614 -1.89975 8.11503 1.16006L10.833 5.31746C10.833 5.31746 11.3455 7.04947 14.7875 8.90501C16.166 9.6489 16.787 10.5247 16.9513 11.3248C17.0643 11.8479 16.9789 12.3947 16.7118 12.8575Z" transform="translate(48 212)" id="Shape" fill="#B07473" fill-rule="evenodd" stroke="none" />
    <path d="M16.711 5.9545C16.4047 6.19339 16.0621 6.45028 15.7085 6.72514C15.6832 6.73354 15.6571 6.73957 15.6305 6.74312C14.3022 7 9.1728 7 9.1728 7C9.1728 7 3.97376 3.2855 2.41433 3.20073C0.854902 3.11596 0 1.86495 0 1.86495C0 1.86495 0.0306317 1.00183 0.130881 0C1.72651 0.441835 4.1492 1.22018 4.79803 2.05505C5.79217 3.33945 8.81357 5.1145 8.81357 5.1145C8.81357 5.1145 14.447 4.61615 16.9505 4.54679C17.0649 5.02712 16.9794 5.52959 16.711 5.9545Z" transform="translate(48 219)" id="Shape" fill="#000000" fill-opacity="0.1" fill-rule="evenodd" stroke="none" />
    <path d="M15 9.28267L7.59051 17C7.59051 17 -1.38371 16.348 0.183794 13.7344C0.98144 12.4058 1.10651 9.62511 1.03703 7.19786C0.970323 4.86102 0.725749 2.8721 0.725749 2.8721C0.725749 2.8721 13.313 -3.30287 12.3486 2.45569C12.1439 3.54122 12.1317 4.65351 12.3125 5.74316C12.86 8.65257 15 9.28267 15 9.28267Z" transform="translate(28 77)" id="Shape" fill="#EFB7B9" fill-rule="evenodd" stroke="none" />
    <path d="M11.9458 2.3242C11.7354 3.35161 11.7229 4.40434 11.9087 5.43564C10.1216 7.07913 7.68277 8.00295 5.13882 7.99999C3.37922 7.99999 1.4968 6.70356 0.0828381 5.93866C0.0142824 3.72694 0 2.71831 0 2.71831C0 2.71831 12.937 -3.12602 11.9458 2.3242Z" transform="translate(29 77)" id="Shape" fill="#000000" fill-opacity="0.1" fill-rule="evenodd" stroke="none" />
    <path d="M19 9.49634C19.0015 13.9289 15.9372 17.7734 11.6158 18.7605C7.29445 19.7476 2.86479 17.615 0.941457 13.6214C-0.981878 9.62776 0.112411 4.83484 3.57842 2.07165C7.04442 -0.691539 11.9607 -0.690442 15.4255 2.07429C17.6836 3.87612 18.999 6.60752 19 9.49634Z" transform="translate(24 67)" id="Shape" fill="#EFB7B9" fill-rule="evenodd" stroke="none" />
    <path d="M33 1.71346C30.7061 6.78713 15.9493 6.8923 15.9493 6.8923L15.9493 1.36204L15.055 1.30818C15.4414 2.89081 14.5029 6.75378 14.5029 6.75378C2.8404 8.29282 0 2.1136 0 2.1136L0.403011 0L9.49009 0.75156C9.49009 0.75156 31.5729 -0.628438 32.5694 0.518141C32.783 0.891742 32.9285 1.29565 33 1.71346L33 1.71346Z" transform="translate(23 143)" id="Shape" fill="#000000" fill-opacity="0.1" fill-rule="evenodd" stroke="none" />
    <path d="M15.803 64.8865L15.803 58.9028L14.9169 58.8473C15.2998 60.5589 14.3699 64.7367 14.3699 64.7367C5.67519 65.9795 1.92546 62.5174 0.604442 60.7142C0.368167 60.4044 0.165515 60.0695 0 59.7156L3.52546 39.5783L4.34596 9.94242L5.61775 4.74373L5.91314 2.24703L5.91314 2.21929L5.94322 2.23316L6.84031 2.62431L12.2229 4.98231L18.3685 0.302378L18.4587 0.233026L18.7623 0L19.2683 0.413343L20.5237 1.43422L24.5551 27.8271C24.5551 27.8271 31.5459 48.1503 32.8423 56.3533C32.8942 56.6807 32.938 56.9858 32.9708 57.2716C33.8214 64.7478 15.803 64.8865 15.803 64.8865Z" transform="translate(23 85)" id="Shape" fill="#E1E7EF" fill-rule="evenodd" stroke="none" />
    <path d="M0.5 1C0.776142 1 1 0.776142 1 0.5C1 0.223858 0.776142 0 0.5 0C0.223858 0 0 0.223858 0 0.5C0 0.776142 0.223858 1 0.5 1Z" transform="translate(35 91)" id="Oval" fill="#67647E" fill-rule="evenodd" stroke="none" />
    <path d="M0.5 1C0.776142 1 1 0.776142 1 0.5C1 0.223858 0.776142 0 0.5 0C0.223858 0 0 0.223858 0 0.5C0 0.776142 0.223858 1 0.5 1Z" transform="translate(36 95)" id="Oval" fill="#67647E" fill-rule="evenodd" stroke="none" />
    <path d="M0.5 1C0.776142 1 1 0.776142 1 0.5C1 0.223858 0.776142 0 0.5 0C0.223858 0 0 0.223858 0 0.5C0 0.776142 0.223858 1 0.5 1Z" transform="translate(36 103)" id="Oval" fill="#67647E" fill-rule="evenodd" stroke="none" />
    <path d="M0.5 1C0.776142 1 1 0.776142 1 0.5C1 0.223858 0.776142 0 0.5 0C0.223858 0 0 0.223858 0 0.5C0 0.776142 0.223858 1 0.5 1Z" transform="translate(37 111)" id="Oval" fill="#67647E" fill-rule="evenodd" stroke="none" />
    <path d="M0.5 1C0.776142 1 1 0.776142 1 0.5C1 0.223858 0.776142 0 0.5 0C0.223858 0 0 0.223858 0 0.5C0 0.776142 0.223858 1 0.5 1Z" transform="translate(37 119)" id="Oval" fill="#67647E" fill-rule="evenodd" stroke="none" />
    <path d="M0.5 1C0.776142 1 1 0.776142 1 0.5C1 0.223858 0.776142 0 0.5 0C0.223858 0 0 0.223858 0 0.5C0 0.776142 0.223858 1 0.5 1Z" transform="translate(38 127)" id="Oval" fill="#67647E" fill-rule="evenodd" stroke="none" />
    <path d="M0.5 1C0.776142 1 1 0.776142 1 0.5C1 0.223858 0.776142 0 0.5 0C0.223858 0 0 0.223858 0 0.5C0 0.776142 0.223858 1 0.5 1Z" transform="translate(38 135)" id="Oval" fill="#67647E" fill-rule="evenodd" stroke="none" />
    <path d="M6.18229 40.4651C6.18229 40.4651 5.60871 48.1961 4.55893 50.4431C3.50916 52.6901 3.03298 59 3.03298 59L0.597937 58.7219C0.364205 58.4112 0.163734 58.0756 0 57.7208L3.48752 37.5341L4.2992 7.82545L5.5573 2.614L5.8495 0.111171C5.85901 0.103785 5.87018 0.0990003 5.88197 0.097266C6.15877 -0.0371442 6.48057 -0.0320082 6.75317 0.111171L6.87222 0.172351C6.83705 0.275245 6.80187 0.38092 6.76941 0.489376C5.81704 3.5623 5.4599 9.22982 5.4599 9.22982C5.4599 9.22982 6.82893 19.5943 6.98315 24.4164C7.13737 29.2386 6.18229 40.4651 6.18229 40.4651Z" transform="translate(23 88)" id="Shape" fill="#000000" fill-opacity="0.1" fill-rule="evenodd" stroke="none" />
    <path d="M4 0.811189C3.97559 0.875585 3.94766 0.938179 3.91636 0.998601C3.05289 2.65734 0.863469 3.71189 0.196802 4L0 3.5972L0.462485 1.13287L2.90775 0C3.294 0.229679 3.65979 0.501343 4 0.811189L4 0.811189Z" transform="translate(19 143)" id="Shape" fill="#000000" fill-opacity="0.1" fill-rule="evenodd" stroke="none" />
    <path d="M5.87453 0L3.53271 1.36653L1.39293 10.5975C1.39293 10.5975 -1.27896 18.4315 0.778308 24.0249C2.83557 29.6183 4.03351 32.8077 4.03351 32.8077C4.03351 32.8077 4.85585 39.1701 6.08793 39.6819C7.32002 40.1936 7.85781 40.4813 7.85781 40.4813L8.10252 42C8.10252 42 11.4488 40.8935 12.6325 38.9571C13.8162 37.0207 11.7618 32.177 11.7618 32.177C11.7618 32.177 9.99475 28.0609 10.4472 26.1438C10.8996 24.2268 9.54232 19.1895 9.54232 19.0705C9.54232 18.9516 9.41997 16.2711 10.396 14.213C11.372 12.1549 10.726 11.278 10.726 11.278L10.1086 5.40249L5.87453 0Z" transform="translate(10 105)" id="Shape" fill="#6696BB" fill-rule="evenodd" stroke="none" />
    <path d="M15 57.9002C15 57.9002 8.89532 60.1786 6.95279 58.1767C5.01026 56.1748 5.21459 46.84 5.21459 46.84C5.21459 46.84 3.35604 29.5833 2.18044 26.7491C1.00485 23.9149 1.62064 3.45908 1.62064 3.45908C1.62064 3.45908 0.825714 0.818456 0.14555 0.118897C0.102767 0.0728741 0.0537938 0.0328685 0 0L0.237918 0.0497709L1.07763 0.229499L2.36238 1.24704L6.48815 27.5537C6.48815 27.5537 13.6425 47.8105 14.9692 55.9868L15 57.9002Z" transform="translate(41 85)" id="Shape" fill="#000000" fill-opacity="0.1" fill-rule="evenodd" stroke="none" />
    <path d="M7 1.66629L6.93599 1.66629C6.23446 1.76666 0.0230432 2.60698 0 1.16152C0.000108587 0.99382 0.00865665 0.826257 0.0256035 0.659631L5.77871 0L6.91807 1.31353L6.91807 1.31353C6.93855 1.39956 6.95647 1.47413 6.97184 1.53149L7 1.66629Z" transform="translate(55 142)" id="Shape" fill="#000000" fill-opacity="0.1" fill-rule="evenodd" stroke="none" />
    <path d="M1.1115 0L5.40205 2.3016C5.40205 2.3016 8.96092 11.8182 9.54465 15.9007C9.54465 15.9007 12.1862 26.8327 10.3517 31.3279C8.51707 35.823 8.68116 44.7497 8.68116 44.7497C8.68116 44.7497 7.63206 46.3894 7.20435 45.949C6.77664 45.5086 7.36037 47.669 7.36037 47.669C7.36037 47.669 0.0354973 48.6716 0.000527248 47.187C-0.0344428 45.7025 1.68178 38.6232 1.68178 38.6232C1.68178 38.6232 2.14715 21.778 1.48541 19.1385C0.823668 16.499 1.1115 0 1.1115 0Z" transform="translate(55 96)" id="Shape" fill="#6696BB" fill-rule="evenodd" stroke="none" />
    <path d="M3.7212 0C3.7212 0 1.14141 5.73481 0.32448 6.11365C-0.492452 6.49249 0.490733 8 0.490733 8C0.490733 8 5.17161 2.03788 3.7212 0Z" transform="translate(39 114)" id="Shape" fill="#000000" fill-opacity="0.1" fill-rule="evenodd" stroke="none" />
    <path d="M3.9998 0.00366851C4.02841 -0.127941 0.939178 3.32212 0.115383 3.83602C-0.708411 4.34993 3.1188 3.80782 3.9998 0.00366851Z" transform="translate(38 93)" id="Shape" fill="#000000" fill-opacity="0.1" fill-rule="evenodd" stroke="none" />
    <path d="M4 0C4 0 -0.54179 2.75727 0.0538547 3.84363C0.649499 4.92998 4 0 4 0Z" transform="translate(30 114)" id="Shape" fill="#000000" fill-opacity="0.1" fill-rule="evenodd" stroke="none" />
    <path d="M0 0C0 0 3.90734 2.39574 10 3L0 0Z" transform="translate(42 156)" id="Shape" fill="#000000" fill-opacity="0.1" fill-rule="evenodd" stroke="none" />
    <path d="M0 0C0 0 3.27552 3.89306 4.76966 3.99802C6.2638 4.10298 0 0 0 0Z" transform="translate(33 162)" id="Shape" fill="#000000" fill-opacity="0.1" fill-rule="evenodd" stroke="none" />
    <path d="M4 0C3.85214 0.0764207 2.12113 3.88165 0.354441 3.99759C-1.41225 4.11354 4 0 4 0Z" transform="translate(33 180)" id="Shape" fill="#000000" fill-opacity="0.1" fill-rule="evenodd" stroke="none" />
    <path d="M0 0.125186C0 0.125186 3.27319 -0.723786 4 2C4 2 3.78145 1.14808 0 0.125186Z" transform="translate(54 189)" id="Shape" fill="#000000" fill-opacity="0.1" fill-rule="evenodd" stroke="none" />
    <path d="M0 0.284314C0 0.284314 4.05029 -0.520419 4.91227 0.577865C5.77426 1.67615 0 0.284314 0 0.284314Z" transform="translate(52 203)" id="Shape" fill="#000000" fill-opacity="0.1" fill-rule="evenodd" stroke="none" />
    <path d="M4.32777 1.75445e-14C4.32777 0.0216052 -0.173286 0.490746 0.00516964 0.802478C0.183625 1.11421 4.80365 1.06946 4.96794 0.57871C5.03187 0.455526 4.99932 0.323419 4.87804 0.213777C4.75675 0.104136 4.55755 0.0267476 4.32777 0L4.32777 1.75445e-14Z" transform="translate(36 205)" id="Shape" fill="#000000" fill-opacity="0.1" fill-rule="evenodd" stroke="none" />
    <path d="M0 0.176712C0 0.176712 7.44676 -0.436751 6.97884 0.622341C6.51092 1.68143 0 0.176712 0 0.176712Z" transform="translate(50 209)" id="Shape" fill="#000000" fill-opacity="0.1" fill-rule="evenodd" stroke="none" />
    <path d="M0 0C0.0384615 0.104496 4.40769 0.665857 5 2C5 2 0.705128 0.104496 0.0384615 0.104496" transform="translate(13 120)" id="Shape" fill="#000000" fill-opacity="0.1" fill-rule="evenodd" stroke="none" />
    <path d="M4 0C4 0 -0.287473 1.32509 0.0153144 3.33343C0.318102 5.34178 -0.417672 2.39581 4 0Z" transform="translate(16 133)" id="Shape" fill="#000000" fill-opacity="0.1" fill-rule="evenodd" stroke="none" />
    <path d="M0 1C0 1 1.39984 -0.192045 2.73186 0.0268337C4.06389 0.245712 0 1 0 1Z" transform="translate(17 140)" id="Shape" fill="#000000" fill-opacity="0.1" fill-rule="evenodd" stroke="none" />
    <path d="M14.9889 1.96988C14.8509 2.09926 14.6967 2.21123 14.5298 2.30316C13.3932 2.94286 13.089 3.91584 12.5441 5.06352C12.0463 6.1037 11.496 7.21375 10.4865 7.79432C9.18667 8.55496 7.47198 8.27543 6.1196 8.942C4.89363 9.56635 4.17862 10.8499 4.31088 12.1889C4.39878 12.6936 4.52826 13.1906 4.69807 13.6752C5.00319 14.7237 5.14215 15.8113 5.11015 16.9006C5.11423 16.9336 5.11423 16.967 5.11015 17C1.94924 15.4673 -0.0345558 12.3159 0.000455953 8.88301C0.0354677 5.45009 2.08315 2.33757 5.27469 0.866043C8.46624 -0.605479 12.242 -0.177969 15 1.96719L14.9889 1.96988Z" transform="translate(24 67)" id="Shape" fill="#000000" fill-opacity="0.1" fill-rule="evenodd" stroke="none" />
    <path d="M18.6852 4.63071C17.7048 2.48695 15.5757 1.13285 13.3851 0.459976C11.7128 -0.0432931 9.8989 -0.207342 8.23995 0.345976C7.29427 0.660171 6.4314 1.18012 5.54716 1.65837C3.89355 2.52866 2.07432 3.21544 0.83211 4.64461C0.543597 4.97549 0.276455 5.40369 0.361941 5.84301C0.426055 6.1711 0.671825 6.42135 0.829439 6.7133C1.18474 7.36393 1.09658 8.18418 0.853481 8.8932C0.610382 9.60223 0.255084 10.264 0.0841134 10.9925C-0.0868572 11.721 -0.0200718 12.5746 0.498183 13.0945C0.748571 13.301 1.00893 13.494 1.27824 13.6729C1.56136 13.9291 1.81023 14.2237 2.01822 14.5487L3.49017 16.6424C4.18246 17.5716 4.79902 18.5594 5.33345 19.5953C5.7021 20.3544 5.98527 21.1663 6.47414 21.8447C6.96301 22.5232 7.72971 23.0681 8.54182 22.9931C8.66916 22.9975 8.79066 22.9374 8.86773 22.8318C8.89966 22.7655 8.91439 22.6917 8.91047 22.6177C8.94371 21.4908 8.80944 20.3653 8.51243 19.2811C8.34841 18.7798 8.22334 18.2656 8.13843 17.7435C8.01143 16.3585 8.70187 15.0311 9.88554 14.3847C11.1945 13.6979 12.8508 13.9871 14.1064 13.2002C15.0814 12.5857 15.6131 11.4485 16.0939 10.3724C16.6282 9.19628 16.914 8.17862 18.012 7.51686C19.1099 6.8551 19.2275 5.75681 18.6852 4.63071Z" transform="translate(20 62)" id="Shape" fill="#585268" fill-rule="evenodd" stroke="none" />
    <path d="M0 0C0 0 1.27228 1.80528 0.946695 2.82734C0.621112 3.84941 0 0 0 0Z" transform="translate(36 216)" id="Shape" fill="#000000" fill-opacity="0.1" fill-rule="evenodd" stroke="none" />
    <path d="M0 2C0 2 0.285301 0.0437235 1.43408 0.025776C2.58286 0.00782852 2.6384 -0.0796655 3.5145 0.218712C4.3906 0.517089 5.21116 0.983723 4.9511 1.05551C4.69105 1.1273 3.43623 -0.0662049 2.17384 0.541766C1.37182 0.929316 0.639176 1.42078 0 2Z" transform="translate(54 218)" id="Shape" fill="#000000" fill-opacity="0.1" fill-rule="evenodd" stroke="none" />
    <path d="M3.38841 6L7 3.1137C7 3.1137 1.69674 -0.453764 1.06522 0.0484524C0.433696 0.550668 0 5.05329 0 5.05329L3.38841 6Z" transform="translate(27 88)" id="Shape" fill="#000000" fill-opacity="0.1" fill-rule="evenodd" stroke="none" />
    <path d="M3.37319 6L7 3.07792C7 3.07792 1.69674 -0.446258 1.06522 0.047413C0.433696 0.541084 0 5.2438 0 5.2438L3.37319 6Z" transform="translate(27 87)" id="Shape" fill="#E1E7EF" fill-rule="evenodd" stroke="none" />
    <path d="M3.37319 6L7 3.07792C7 3.07792 1.69674 -0.446258 1.06522 0.047413C0.433696 0.541084 0 5.2438 0 5.2438L3.37319 6Z" transform="translate(27 87)" id="Shape" fill="#000000" fill-opacity="0.03" fill-rule="evenodd" stroke="none" />
    <path d="M15.8613 0.173256L15.7383 0.112082C15.3666 -0.0722182 14.9181 -0.0264478 14.5939 0.228868L2.32551 9.90264C2.32551 9.90264 -0.341026 13.4869 0.0366378 19.6737L7.26947 29.6367C7.26947 29.6367 8.09633 26.261 9.08912 26.9033C9.08912 26.9033 10.4939 44.1765 9.08912 46.668C7.68433 49.1594 7.06347 58.4772 7.06347 58.4772L11.8157 59C11.8157 59 12.3107 52.6936 13.4265 50.444C14.5424 48.1945 15.1432 40.4644 15.1432 40.4644C15.1432 40.4644 16.1474 29.2335 15.9815 24.4091C15.8155 19.5847 14.3707 9.22695 14.3707 9.22695C14.3707 9.22695 14.7741 3.15408 15.8613 0.173256Z" transform="translate(14 87)" id="Shape" fill="#6696BB" fill-rule="evenodd" stroke="none" />
    <path d="M4.8871 6L0 4.18544C0 4.18544 6.22619 -2.64389 7 1.14468L4.8871 6Z" transform="translate(36 85)" id="Shape" fill="#000000" fill-opacity="0.1" fill-rule="evenodd" stroke="none" />
    <path d="M4.8871 6L0 4.18809C0 4.18809 6.22619 -2.64437 7 1.14442L4.8871 6Z" transform="translate(36 85)" id="Shape" fill="#E1E7EF" fill-rule="evenodd" stroke="none" />
    <path d="M4.8871 6L0 4.18809C0 4.18809 6.22619 -2.64437 7 1.14442L4.8871 6Z" transform="translate(36 85)" id="Shape" fill="#000000" fill-opacity="0.03" fill-rule="evenodd" stroke="none" />
    <path d="M0 0.00800653C0.126786 -0.014957 0.257542 0.0119108 0.365 0.0830065L0 0.00800653Z" transform="translate(41 85)" id="Shape" fill="#000000" fill-opacity="0.1" fill-rule="evenodd" stroke="none" />
    <path d="M0 0.00496089L13.1367 2.82302C13.1367 2.82302 16.7487 3.62147 19.3577 12.6393C21.9667 21.6571 15.7846 32.7111 15.7846 32.7111L14.4203 31.559L15.1038 57.9023C15.1038 57.9023 9.04119 60.1761 7.1157 58.1786C5.19021 56.1811 5.38748 46.8511 5.38748 46.8511C5.38748 46.8511 3.54257 29.6029 2.3756 26.7627C1.20864 23.9226 1.81991 3.49162 1.81991 3.49162C1.81991 3.49162 0.73352 -0.152519 0 0.00496089Z" transform="translate(42 85)" id="Shape" fill="#6696BB" fill-rule="evenodd" stroke="none" />
    <path d="M0.182006 0.120415C-0.01385 0.289906 -0.238939 8.17669 0.605875 14.1799C1.12429 17.8358 1.92441 21.4519 3 25L1.74593 0.943265C1.74593 0.943265 0.772499 -0.401725 0.182006 0.120415Z" transform="translate(53 102)" id="Shape" fill="#000000" fill-opacity="0.1" fill-rule="evenodd" stroke="none" />
    <path d="M0 0C0.2577 0.196377 1.3818 3.4666 0.866404 4.80851C0.351005 6.15041 0 0 0 0Z" transform="translate(52 95)" id="Shape" fill="#000000" fill-opacity="0.1" fill-rule="evenodd" stroke="none" />
    <path d="M12.664 3.11033C11.9995 1.8035 10.9622 0.721422 9.68237 0C10.6326 0.675033 11.4005 1.57361 11.9179 2.61576C12.4918 3.77356 12.3311 4.93421 11.1918 5.59173C10.0526 6.24924 9.69672 7.30698 9.13426 8.52767C8.61771 9.63401 8.04377 10.8147 6.99633 11.4322C5.64757 12.244 3.87123 11.9467 2.46507 12.65C1.19308 13.3156 0.451439 14.6814 0.588289 16.1062C0.678132 16.6433 0.812512 17.1721 0.990047 17.6871C1.30854 18.8019 1.45181 19.9591 1.41476 21.1176C1.41973 21.1935 1.4049 21.2693 1.37172 21.3377C1.28893 21.4463 1.15841 21.5081 1.02161 21.5036C0.670359 21.531 0.318035 21.4659 0 21.3149C0.468739 21.7768 1.10891 22.0243 1.76774 21.9981C1.90453 22.0027 2.03505 21.9409 2.11784 21.8323C2.15084 21.7637 2.1666 21.6882 2.16375 21.6122C2.19804 20.4536 2.05384 19.2967 1.73617 18.1817C1.55863 17.6667 1.42425 17.1379 1.33441 16.6008C1.19797 15.1768 1.93967 13.8121 3.2112 13.1474C4.61735 12.4413 6.39369 12.7386 7.74245 11.9296C8.78989 11.2978 9.36383 10.1286 9.88038 9.02223C10.4543 7.81298 10.7585 6.76667 11.938 6.08629C13.1174 5.40591 13.2437 4.26812 12.664 3.11033Z" transform="translate(27 63)" id="Shape" fill="#000000" fill-opacity="0.1" fill-rule="evenodd" stroke="none" />
    <path d="M11 3C17.0751 3 22 2.32843 22 1.5C22 0.671573 17.0751 0 11 0C4.92487 0 0 0.671573 0 1.5C0 2.32843 4.92487 3 11 3Z" transform="translate(255 209)" id="Oval" fill="#6C63FF" fill-opacity="0.1" fill-rule="evenodd" stroke="none" />
    <path d="M8 2C12.4183 2 16 1.55228 16 1C16 0.447715 12.4183 0 8 0C3.58172 0 0 0.447715 0 1C0 1.55228 3.58172 2 8 2Z" transform="translate(170 224)" id="Oval" fill="#6C63FF" fill-opacity="0.1" fill-rule="evenodd" stroke="none" />
    <path d="M8 2C12.4183 2 16 1.55228 16 1C16 0.447715 12.4183 0 8 0C3.58172 0 0 0.447715 0 1C0 1.55228 3.58172 2 8 2Z" transform="translate(98 215)" id="Oval" fill="#6C63FF" fill-opacity="0.1" fill-rule="evenodd" stroke="none" />
    <path d="M9.9418 5.24293C10.4326 4.81979 10.7899 4.24829 10.9658 3.6047C11.0995 2.95676 10.8375 2.17584 10.2493 1.93817C9.59156 1.67221 8.8884 2.15604 8.35636 2.6427C7.82431 3.12936 7.21206 3.68675 6.51692 3.58206C7.24556 2.88157 7.57425 1.82836 7.38317 0.806404C7.35161 0.598592 7.26859 0.403338 7.14255 0.240521C6.77626 -0.172574 6.11321 0.00567924 5.67742 0.331062C4.28715 1.3638 3.89948 3.3642 3.89146 5.16088C3.75243 4.51294 3.87007 3.83671 3.86472 3.18029C3.85937 2.52386 3.69094 1.76558 3.15889 1.42039C2.83189 1.22881 2.46317 1.13125 2.08945 1.13745C1.46651 1.11198 0.768697 1.17989 0.343596 1.66372C-0.191123 2.26355 -0.0494227 3.27083 0.410435 3.92725C0.870294 4.58368 1.57345 5.00526 2.22046 5.4608C2.73804 5.78739 3.17942 6.23322 3.51181 6.76516C3.55186 6.8395 3.58413 6.91825 3.60805 7L7.52754 7C8.40257 6.53058 9.21449 5.93968 9.9418 5.24293L9.9418 5.24293Z" transform="translate(100 209)" id="Shape" fill="#6696BB" fill-rule="evenodd" stroke="none" />
    <path d="M9.93134 5.24293C10.4251 4.82054 10.7859 4.24919 10.9658 3.6047C11.0994 2.95676 10.8375 2.18999 10.2494 1.93817C9.59187 1.67221 8.88887 2.15604 8.35694 2.6427C7.82502 3.12936 7.2129 3.68675 6.51524 3.58206C7.24602 2.88316 7.57508 1.82854 7.3813 0.806404C7.35248 0.597736 7.26916 0.40174 7.14073 0.240521C6.7772 -0.172574 6.11429 0.00567924 5.67859 0.331062C4.28863 1.3638 3.90105 3.3642 3.89303 5.16088C3.75136 4.51294 3.87164 3.83671 3.8663 3.18029C3.86095 2.52386 3.68988 1.76558 3.16062 1.42039C2.8337 1.22881 2.46506 1.13125 2.09142 1.13745C1.46594 1.11198 0.770959 1.17989 0.343279 1.66372C-0.191322 2.26355 -0.0496526 3.27083 0.412777 3.92725C0.875207 4.58368 1.57553 5.00526 2.2224 5.4608C2.73987 5.78739 3.18115 6.23322 3.51346 6.76516C3.55241 6.84008 3.58462 6.9187 3.60969 7L7.52564 7C8.39796 6.53046 9.20703 5.93953 9.93134 5.24293L9.93134 5.24293Z" transform="translate(261 203)" id="Shape" fill="#6696BB" fill-rule="evenodd" stroke="none" />
    <path d="M9.94038 5.22814C10.431 4.8055 10.7889 4.23598 10.9669 3.59453C11.0979 2.9456 10.8359 2.18381 10.2505 1.9327C9.59286 1.66749 8.88979 2.14713 8.3578 2.63524C7.82582 3.12335 7.21364 3.67353 6.51591 3.57196C7.24584 2.87439 7.57476 1.82331 7.38206 0.804129C7.35177 0.596505 7.26861 0.401465 7.14146 0.239842C6.77522 -0.172087 6.11492 0.00566322 5.67651 0.330128C4.2864 1.36277 3.89877 3.35471 3.89075 5.14914C3.75174 4.50303 3.86937 3.82871 3.8667 3.17413C3.86402 2.51956 3.69026 1.76342 3.16095 1.4192C2.83367 1.22902 2.46521 1.1318 2.09164 1.13706C1.46609 1.11449 0.771039 1.17938 0.343314 1.66185C-0.191341 2.26281 -0.0496577 3.26724 0.412819 3.91899C0.875297 4.57074 1.5757 4.99114 2.21996 5.44821C2.74436 5.77783 3.19055 6.22945 3.52452 6.76864C3.56299 6.84262 3.59519 6.92004 3.62075 7L7.53443 7C8.40848 6.52664 9.21781 5.93061 9.94038 5.22814L9.94038 5.22814Z" transform="translate(170 216)" id="Shape" fill="#6696BB" fill-rule="evenodd" stroke="none" />
    <path d="M50.9808 29.6547C47.3762 29.5832 44.1947 27.0244 42.3924 23.9208C41.9203 23.1795 41.6234 22.3401 41.5242 21.4665C41.5368 21.2674 41.57 21.0701 41.6231 20.8777C41.7388 20.5867 41.8307 20.2867 41.8979 19.9808C41.913 19.8584 41.913 19.7345 41.8979 19.6121C41.8979 19.6121 41.8979 19.6121 41.8979 19.5956C41.9858 18.9298 41.5956 18.2887 41.1066 17.8292C40.6176 17.3697 40.0214 17.0368 39.5186 16.5938C37.9691 15.2319 37.4993 13.0473 37.4691 10.9672C37.4691 10.9314 37.4691 10.8957 37.4691 10.8571C37.4855 9.96845 37.557 9.07424 37.5487 8.18279C37.5611 7.67654 37.5391 7.17003 37.4828 6.66677C37.3344 5.40663 36.8564 4.12448 35.8673 3.32107C33.2875 1.22725 28.9494 3.40636 26.2816 1.42535C25.6305 0.943858 25.1057 0.225743 24.32 0.0496537C23.7238 -0.0934191 23.1056 0.0991789 22.5259 0.291777C20.5588 0.941107 18.3664 1.79679 17.5971 3.71177C17.1575 4.81233 17.2812 6.0477 16.8773 7.15377C16.6025 7.89389 16.1163 8.52947 15.7536 9.23382C15.4545 9.76195 15.3089 10.3633 15.3332 10.97C15.3028 11.284 15.347 11.6008 15.4624 11.8944C15.5982 12.2451 15.8169 12.5576 16.0998 12.8051C15.9964 13.0234 15.8672 13.2284 15.7151 13.416C15.2124 14.0323 14.4403 14.4725 13.9183 15.0668C12.9512 16.1894 12.987 17.7164 13.465 19.0371C13.9431 20.3577 14.8002 21.5601 15.3882 22.845C15.6437 23.3953 15.8498 24.0281 15.5833 24.5839C15.3992 24.9691 15.0145 25.2607 14.7151 25.5936C14.2764 26.0865 14.0018 26.7038 13.9293 27.36C8.04164 28.7055 8.03889 33.4406 8.03889 33.4406L8.03889 33.4406L4.8629 41.4582C4.8629 41.4582 4.35463 42.8064 3.76394 44.5866L0 43.9125L2.59904 48.2982C2.10176 50.0838 1.75284 51.7402 1.86823 52.5711C1.86823 52.5711 0.700587 58.0739 2.77762 59.0341L7.36578 61.1004C7.56376 61.2208 7.7773 61.3134 8.00043 61.3756L8.18725 61.4581C8.32241 61.5246 8.48069 61.5246 8.61585 61.4581L8.64058 61.4581L8.69003 61.4581C8.78337 61.4676 8.87762 61.4544 8.96477 61.4196C9.06781 61.3656 9.14856 61.277 9.1928 61.1692C9.19384 61.161 9.19384 61.1527 9.1928 61.1445L10.5665 60.7455L11.7314 62.1212C12.2562 62.4899 12.7699 62.8118 13.2727 63.1007L11.4814 81.0398C11.4814 81.0398 11.1902 104.883 10.3137 110.312C9.9868 112.323 9.98405 113.693 10.1077 114.626L10.0747 114.687C10.2918 116.219 10.855 116.522 10.855 116.522L10.855 116.5L10.8879 116.522C11.1533 115.826 11.4683 115.15 11.8303 114.5C11.8303 114.626 11.8303 114.755 11.8303 114.89C11.8138 116.915 11.7506 119.747 11.5556 121.587C11.1984 124.718 12.465 135.091 12.465 135.091L12.9018 144.528C12.9727 146.129 12.602 147.719 11.8303 149.123C10.7945 151.008 9.44556 153.658 9.35765 154.832C9.35361 154.896 9.35361 154.961 9.35765 155.025L9.35765 155.025L7.06082 157.702C7.06082 157.702 6.18165 159.059 8.15978 159.606C9.22302 159.903 11.061 159.606 12.5336 159.257C13.8596 158.952 14.8004 157.771 14.803 156.409C15.1824 155.109 15.8197 153.899 16.6767 152.851L17.0476 155.022L19.5203 155.636L19.8362 149.684C19.9647 149.35 20.0226 148.992 20.0066 148.633L20.0066 148.633C20.4929 144.402 18.8609 144.782 18.8609 144.782C18.9023 144.821 18.9302 144.873 18.9406 144.93C18.9131 144.883 18.8856 144.834 18.8609 144.784L18.8609 144.784C17.8581 142.803 18.3499 139.557 18.3499 139.557C18.3499 139.557 19.6494 130.125 20.1055 127.635C20.4269 125.877 20.295 120.115 20.1879 116.888C20.1879 116.753 20.1879 116.613 20.1742 116.5C24.0013 116.45 28.6911 116.318 31.988 115.999L31.988 116.39L31.3781 138.676C31.3371 140.096 31.0498 141.498 30.5291 142.82C30.5291 142.845 30.5071 142.869 30.4989 142.894C29.7694 144.756 29.3535 146.726 29.2681 148.724L28.9933 155.806L28.9933 156.002L28.9933 156.002C28.5015 156.192 27.7268 156.739 27.7048 158.327C27.6718 160.652 31.7627 159.876 31.7627 159.876C35.8536 159.876 35.8838 155.611 35.8838 155.611C35.8838 155.611 36.0157 151.701 36.208 149.085C36.4003 146.468 35.5926 147.046 35.5926 147.046L35.5321 154.475C35.5321 154.494 35.5321 154.513 35.5321 154.532L35.5321 148.009L35.5953 147.062L35.5953 147.035L35.5953 147.035L35.6091 146.834L36.1173 139.158C36.1173 139.158 39.884 126.364 40.4692 123.909C40.8841 122.168 40.711 116.913 40.5736 114.004C40.5736 113.87 40.5736 113.743 40.5571 113.619C41.722 113.515 42.7551 113.504 43.1699 113.504L43.3595 113.504C43.3595 113.504 43.1644 92.9562 42.6781 85.2027C42.1918 77.4493 41.4116 70.3727 39.4609 68.2403C38.285 66.9527 36.6448 62.9742 35.5294 60.0274C37.8557 61.0364 40.2699 61.8284 42.7413 62.3936C48.912 63.6868 48.0685 58.3215 48.0685 58.3215L47.4421 48.1771L47.4833 48.1771C47.4608 45.5194 47.233 42.8674 46.802 40.2448C46.4778 38.2336 45.9778 36.1535 45.214 34.4669C45.8843 34.211 46.5437 33.9166 47.1921 33.6415C48.868 32.9014 50.7637 31.8503 51 30.0399L50.9176 30.0399C50.9486 29.9133 50.9697 29.7845 50.9808 29.6547ZM12.7315 44.3307L12.7315 44.3307C12.7479 45.379 12.7067 47.1949 12.6463 49.2062L10.6874 46.5868L12.6518 43.3952L12.7315 44.3307ZM39.8098 53.6056L36.5459 52.5546C37.1253 51.6508 37.8015 50.8131 38.5625 50.0563L38.8373 49.7812L38.7356 49.8032L38.895 49.6601L38.9884 49.6381L38.8373 49.7812L39.0158 49.7454C39.213 50.5666 39.5934 51.3323 40.1285 51.9851C41.2934 53.2837 39.7988 53.6056 39.7988 53.6056L39.8098 53.6056Z" transform="translate(210 65)" id="Shape" fill="url(#gradient_5)" stroke="none" />
    <path d="M4 0L3.53833 7L0.616653 6.41268L0 3.5L4 0L4 0Z" transform="translate(227 214)" id="Shape" fill="#A27772" fill-rule="evenodd" stroke="none" />
    <path d="M4 0L3.53833 7L0.616653 6.41268L0 3.5L4 0L4 0Z" transform="translate(227 214)" id="Shape" fill="#000000" fill-opacity="0.1" fill-rule="evenodd" stroke="none" />
    <path d="M0 46.2299L3.84773 47L6.69368 44.5631L6.69368 37.7007L6.75629 36.7628L6.75629 36.7353L6.75629 36.7353L6.77052 36.5372L7.28848 28.9184C7.28848 28.9184 11.1362 16.2195 11.7339 13.7908C12.1579 12.0608 11.9815 6.84316 11.842 3.96067C11.7851 2.77797 11.7339 1.98859 11.7339 1.98859L3.24154 0L3.06224 6.32608L2.44183 28.4398C2.39949 29.8488 2.10484 31.24 1.57097 32.5518L1.54251 32.6261C0.802988 34.4787 0.386571 36.437 0.310209 38.4213L0.0256136 45.4487L0.0256136 45.644L0 46.2299Z" transform="translate(239 175)" id="Shape" fill="#CC818C" fill-rule="evenodd" stroke="none" />
    <path d="M0 0.005L0 0.36L0 0.36L0.025 0L0 0.005Z" transform="translate(246 212)" id="Shape" fill="#000000" fill-opacity="0.1" fill-rule="evenodd" stroke="none" />
    <path d="M0 2.23497L4.02381 3L7 0.579235L7 0C6.98146 0.261638 6.82026 0.496987 6.57143 0.625683L6.52976 0.647541C5.14382 1.32123 3.57281 1.60626 2.0119 1.46721L0.440476 1.34426C0.298779 1.35865 0.159718 1.38988 0.0267857 1.43716L0.0267857 1.63115L0 2.23497Z" transform="translate(239 220)" id="Shape" fill="#000000" fill-opacity="0.1" fill-rule="evenodd" stroke="none" />
    <path d="M6.92015 8.19982L6.95668 8.17766C7.19105 8.03875 7.33592 7.77581 7.33504 7.49094L7.39245 0.0532724C7.39245 0.0532724 8.15438 -0.519921 7.97172 2.09406C7.78907 4.70805 7.66643 8.61518 7.66643 8.61518C7.66643 8.61518 7.63772 12.8767 3.80459 12.8767C3.80459 12.8767 -0.0285424 13.6493 0.000160396 11.3261C0.0288632 9.00284 1.58404 8.90592 1.58404 8.90592L2.95916 9.0333C4.32785 9.17157 5.70474 8.88184 6.92015 8.19982Z" transform="translate(238 212)" id="Shape" fill="#B07473" fill-rule="evenodd" stroke="none" />
    <path d="M0.0041669 42.0246C0.102008 43.6824 5.08634 42.7249 5.08634 42.7249L8.4409 36.3478C8.4409 36.3478 11.2364 34.2412 9.83864 32.3918C9.76263 32.2916 9.69352 32.1865 9.63177 32.0772L9.63177 32.0608L9.63177 32.0608C9.60102 32.0115 9.57587 31.9623 9.54791 31.9103L9.54791 31.9103C8.54154 29.957 9.03634 26.7533 9.03634 26.7533C9.03634 26.7533 10.339 17.4516 10.7975 14.9894C11.119 13.2522 10.9876 7.56447 10.8786 4.38001C10.8366 3.05862 10.7975 2.16675 10.7975 2.16675L2.5173 0C2.5173 0 2.5173 1.00951 2.5173 2.41571C2.50052 4.41284 2.43902 7.20882 2.23775 9.02539C1.87993 12.1196 3.15187 22.3569 3.15187 22.3569L3.59076 31.675C3.65328 33.2523 3.27334 34.8163 2.49214 36.1973C1.45222 38.0577 0.099213 40.6758 0.0041669 41.8358C-0.00138897 41.8986 -0.00138897 41.9618 0.0041669 42.0246L0.0041669 42.0246Z" transform="translate(220 178)" id="Shape" fill="#CC818C" fill-rule="evenodd" stroke="none" />
    <path d="M0 10.0177C0.0956807 11.6873 4.96993 10.723 4.96993 10.723L8.25041 4.30076C8.25041 4.30076 10.9841 2.17931 9.61728 0.31684C9.54294 0.215869 9.47536 0.110022 9.41498 0C9.37124 0.972562 8.32149 3.39983 8.32149 3.39983C8.32149 3.39983 5.61236 8.86326 4.76763 10.1141C3.92291 11.3649 0.16129 9.88266 0.0218699 9.83858C0.0097352 9.89757 0.00242073 9.95746 0 10.0177Z" transform="translate(220 210)" id="Shape" fill="#000000" fill-opacity="0.1" fill-rule="evenodd" stroke="none" />
    <path d="M11.7825 0.00863817C11.7825 0.00863817 13.3883 -0.369235 12.9115 3.8735L12.9115 3.8735C12.947 4.85534 12.4606 5.7811 11.6373 6.29912C10.4891 7.03263 8.71338 8.60803 7.8173 11.6727L7.8173 11.6727C7.81871 13.0353 6.89477 14.2195 5.5867 14.5317C4.13708 14.8735 2.32847 15.1764 1.28168 14.8791C-0.666676 14.3234 0.185558 12.9702 0.185558 12.9702L2.42165 10.2807C2.42165 10.2807 6.31836 11.8366 7.18155 10.5724C8.04475 9.30821 10.7439 3.80126 10.7439 3.80126C10.7439 3.80126 12.2703 0.364284 11.7825 0.00863817Z" transform="translate(217 210)" id="Shape" fill="#B07473" fill-rule="evenodd" stroke="none" />
    <path d="M0.163371 0L0 7C2.07455 6.76565 3.53712 6.43696 3.79125 5.97739C4.33323 4.98826 6.31442 4.56826 8 4.39783C7.94814 3.08913 7.90146 2.21565 7.90146 2.21565L0.163371 0Z" transform="translate(242 176)" id="Shape" fill="#000000" fill-opacity="0.1" fill-rule="evenodd" stroke="none" />
    <path d="M0 2.19253C0.205113 1.80745 0.504566 1.47239 0.874332 1.21421C1.71658 0.779678 1.62567 3.99274 1.62567 3.99274C1.62567 3.99274 4.41979 4.01758 8 3.97536C7.95989 2.77357 7.92246 1.96658 7.92246 1.96658L0.0026738 0C0.0026738 0 0.013369 0.916246 0 2.19253Z" transform="translate(222 179)" id="Shape" fill="#000000" fill-opacity="0.1" fill-rule="evenodd" stroke="none" />
    <path d="M0.862826 58.9985C0.862826 58.9985 1.82857 56.4138 2.69498 55.9389C3.56139 55.464 3.47033 58.9931 3.47033 58.9931C3.47033 58.9931 24.7001 59.1841 25.7624 57.5601C26.8248 55.9361 33 56.0344 33 56.0344C33 56.0344 32.8069 35.796 32.324 28.1591C31.8411 20.5223 31.0685 13.5542 29.1398 11.4553C27.8898 10.0906 26.1046 5.69897 25.0174 2.7676C24.4187 1.16545 24.0241 0 24.0241 0L3.76006 1.14634L3.5945 2.7676L1.44227 24.0569C1.44227 24.0569 1.16634 47.5296 0.28338 52.8847C-0.599586 58.2398 0.862826 58.9985 0.862826 58.9985Z" transform="translate(220 123)" id="Shape" fill="#0595D4" fill-rule="evenodd" stroke="none" />
    <g id="Group" transform="translate(220 123)" opacity="0.1">
      <path d="M19.4068 58.3106C20.4627 56.6682 26.62 56.765 26.62 56.765C26.62 56.765 26.4275 36.2627 25.9463 28.5263C25.465 20.7899 24.695 13.7309 22.7728 11.6046C21.527 10.2221 19.7477 5.77327 18.6643 2.80369C18.1637 1.44055 17.8062 0.389862 17.7045 0.0884793L19.272 0C19.272 0 19.6653 1.18065 20.262 2.80369C21.362 5.77327 23.1248 10.2276 24.3705 11.6046C26.2955 13.7309 27.0627 20.7899 27.544 28.5263C28.0253 36.2627 28.2068 56.7512 28.2068 56.7512C28.2068 56.7512 22.0522 56.6516 20.9963 58.3106C20.0915 59.7152 4.521 59.7788 0 59.7677C5.797 59.7401 18.5818 59.5659 19.4068 58.3106Z" transform="translate(4.719 0.008294931)" id="Shape" fill="#000000" fill-rule="evenodd" stroke="none" />
      <path d="M0.99825 0.0452456C1.38875 -0.173188 1.584 0.432342 1.68025 1.15124C1.33144 1.78907 1.02728 2.45058 0.77 3.13096C0.77 3.13096 0.22 2.82958 0 1.30055C0.30525 0.755845 0.66 0.236029 0.99825 0.0452456Z" transform="translate(0.12925 56.614662)" id="Shape" fill="#000000" fill-rule="evenodd" stroke="none" />
    </g>
    <path d="M3.9226 2.93673C2.56168 4.87041 3.93867 7.61489 2.47863 9.49283C1.99641 10.1142 1.25434 10.5572 0.750689 11.1646C-0.181596 12.2958 -0.14409 13.8283 0.314015 15.1573C0.772121 16.4864 1.59993 17.6928 2.16787 18.9857C2.41434 19.5429 2.61258 20.1754 2.35808 20.7327C2.18126 21.12 1.82228 21.4125 1.52223 21.7497C0.584592 22.8391 0.557802 24.3548 1.06145 25.6365C1.5651 26.9182 2.53221 28.0299 3.47253 29.111C3.84759 29.5401 4.32177 30.011 4.94597 29.9998C5.27482 29.972 5.59258 29.8631 5.8729 29.6822C8.09505 28.4654 9.78084 26.4047 10.5799 23.9285C11.2553 21.599 11.1128 19.0957 10.178 16.8653C9.37432 14.8954 8.06698 13.0063 8.05627 10.9222C8.05627 9.26993 8.87335 7.6929 9.01802 6.04621C9.19483 4.04846 8.05627 0.872104 5.73627 0C5.88897 1.29004 4.62449 1.95596 3.9226 2.93673Z" transform="translate(223 70)" id="Shape" fill="#585268" fill-rule="evenodd" stroke="none" />
    <path d="M3.9226 2.93673C2.56168 4.87041 3.93867 7.61489 2.47863 9.49283C1.99641 10.1142 1.25434 10.5572 0.750689 11.1646C-0.181596 12.2958 -0.14409 13.8283 0.314015 15.1573C0.772121 16.4864 1.59993 17.6928 2.16787 18.9857C2.41434 19.5429 2.61258 20.1754 2.35808 20.7327C2.18126 21.12 1.82228 21.4125 1.52223 21.7497C0.584592 22.8391 0.557802 24.3548 1.06145 25.6365C1.5651 26.9182 2.53221 28.0299 3.47253 29.111C3.84759 29.5401 4.32177 30.011 4.94597 29.9998C5.27482 29.972 5.59258 29.8631 5.8729 29.6822C8.09505 28.4654 9.78084 26.4047 10.5799 23.9285C11.2553 21.599 11.1128 19.0957 10.178 16.8653C9.37432 14.8954 8.06698 13.0063 8.05627 10.9222C8.05627 9.26993 8.87335 7.6929 9.01802 6.04621C9.19483 4.04846 8.05627 0.872104 5.73627 0C5.88897 1.29004 4.62449 1.95596 3.9226 2.93673Z" transform="translate(223 70)" id="Shape" fill="#000000" fill-opacity="0.1" fill-rule="evenodd" stroke="none" />
    <path d="M16 0C13.0805 0.157895 10.333 1.43567 7.77774 2.88304C5.22244 4.33041 2.75031 5.98246 0 7" transform="translate(228 143)" id="Shape" fill="#000000" fill-opacity="0.1" fill-rule="evenodd" stroke="none" />
    <path d="M13 0C10.2604 0.267303 7.70709 1.5292 5.8077 3.55463C5.1358 4.27939 4.55639 5.09267 3.85457 5.787C2.7787 6.8501 1.45091 7.61241 0 8" transform="translate(228 149)" id="Shape" fill="#000000" fill-opacity="0.1" fill-rule="evenodd" stroke="none" />
    <path d="M16 0C13.7452 0.619607 11.7044 1.8379 10.0982 3.5231C9.66499 3.98515 9.26506 4.48295 8.83735 4.94224C6.49609 7.41749 3.19111 8.75138 0 10" transform="translate(226 154)" id="Shape" fill="#000000" fill-opacity="0.1" fill-rule="evenodd" stroke="none" />
    <path d="M11.0938 0.137302C11.1564 2.41871 11.349 4.69445 11.6706 6.95299C11.9288 8.56296 12.2969 9.99622 12.8242 10.6329C14.3596 12.4981 5.3313 15 5.3313 15L0 10.7928C0 10.7928 4.22713 6.81836 2.25777 2.93931C0.288401 -0.939746 11.0938 0.137302 11.0938 0.137302Z" transform="translate(231 84)" id="Shape" fill="#CC818C" fill-rule="evenodd" stroke="none" />
    <path d="M0 3L22 3C21.3851 1.26331 20.9799 0 20.9799 0L0.170015 1.2426L0 3Z" transform="translate(224 123)" id="Shape" fill="#000000" fill-opacity="0.1" fill-rule="evenodd" stroke="none" />
    <path d="M4.18152 33L27.0902 33C26.4471 30.6894 27.0902 28.5477 28.0093 26.9048C28.6516 25.7505 29.4598 24.6975 30.4078 23.7796L30.5652 23.6383L38.5694 21.8569L39 21.7627C39 21.7627 39.0634 7.16464 33.9159 5.16153C28.7683 3.15842 25.677 0.451599 25.677 0.451599L18.6002 2.64587L13.3864 0C11.7138 1.80917 7.27282 1.10822 7.27282 1.10822C0 1.93938 0 7.43892 0 7.43892C0 7.43892 4.24777 17.388 4.5707 17.388C4.89363 17.388 4.18152 33 4.18152 33Z" transform="translate(218 92)" id="Shape" fill="#67647E" fill-rule="evenodd" stroke="none" />
    <path d="M6 3C6 3 1.52314 1.90883 0 0" transform="translate(224 113)" id="Shape" fill="#000000" fill-opacity="0.1" fill-rule="evenodd" stroke="none" />
    <path d="M5.18862 0L0 4.04882C0.0376626 4.36881 0.0951192 4.68643 0.172071 5L0.322965 4.87167L8 3.25365L5.18862 0Z" transform="translate(249 110)" id="Shape" fill="#000000" fill-opacity="0.1" fill-rule="evenodd" stroke="none" />
    <path d="M0 6.42812C0 6.42812 1.18086 7.10861 2.98784 8L6.08552 8C5.44566 5.65483 6.08552 3.48119 7 1.81371L1.52687 0C3.39427 1.77153 0 6.42812 0 6.42812Z" transform="translate(240 117)" id="Shape" fill="#000000" fill-opacity="0.1" fill-rule="evenodd" stroke="none" />
    <path d="M9.75089 0L6.50177 1.75403L3.31675 9.81587C3.31675 9.81587 0.00354251 18.6585 0.326782 21.0009C0.326782 21.0009 -0.840781 26.5251 1.23798 27.5012L6.6606 29.9551C6.85645 30.0441 7.08716 29.9981 7.23411 29.841C7.38106 29.6838 7.41153 29.4504 7.30987 29.2608C6.538 27.7967 5.69089 25.5101 7.03122 24.2413L5.47075 20.9926L11.1191 11.7679L13 8.59446L9.75089 0Z" transform="translate(212 97)" id="Shape" fill="#67647E" fill-rule="evenodd" stroke="none" />
    <path d="M0.0314425 2.22067C0.296486 3.37224 1.20293 5.14153 4.19262 5.80955L7.48445 8.64375L10.9751 10.3208L12.3957 11L13 6.4049L11.6297 5.61389L10.0395 4.69431C10.0395 4.69431 6.43753 -2.19275 0.731156 0.716925C0.191182 0.981814 -0.100279 1.60819 0.0314425 2.22067L0.0314425 2.22067Z" transform="translate(229 111)" id="Shape" fill="#000000" fill-opacity="0.1" fill-rule="evenodd" stroke="none" />
    <path d="M0.0309003 2.21708C0.295954 3.36876 1.20244 5.1382 4.19225 5.80628L7.48422 8.64354L10.975 10.3207L12.3957 11L13 6.40448L11.6297 5.6162L10.0393 4.69374C10.0393 4.69374 6.43726 -2.19115 0.730643 0.715993C0.191804 0.980665 -0.0994458 1.60546 0.0309003 2.21708L0.0309003 2.21708Z" transform="translate(229 111)" id="Shape" fill="#CC818C" fill-rule="evenodd" stroke="none" />
    <path d="M8 16C12.4183 16 16 12.4183 16 8C16 3.58172 12.4183 0 8 0C3.58172 0 0 3.58172 0 8C0 12.4183 3.58172 16 8 16Z" transform="translate(227 74)" id="Oval" fill="#000000" fill-opacity="0.1" fill-rule="evenodd" stroke="none" />
    <path d="M8 16C12.4183 16 16 12.4183 16 8C16 3.58172 12.4183 0 8 0C3.58172 0 0 3.58172 0 8C0 12.4183 3.58172 16 8 16Z" transform="translate(227 74)" id="Oval" fill="#CC818C" fill-rule="evenodd" stroke="none" />
    <path d="M2.55066 8L0 3.42252C0 3.42252 3.75231 2.03209 4.02438 0.417735C4.29645 -1.19662 7.61798 2.30809 6.89813 3.46939C6.17827 4.63068 2.55066 8 2.55066 8Z" transform="translate(238 91)" id="Shape" fill="#000000" fill-opacity="0.1" fill-rule="evenodd" stroke="none" />
    <path d="M2.55066 8L0 3.4224C0 3.4224 3.75231 2.03193 4.02438 0.417535C4.29645 -1.19686 7.61798 2.31055 6.89813 3.46927C6.17827 4.62799 2.55066 8 2.55066 8Z" transform="translate(238 91)" id="Shape" fill="#67647E" fill-rule="evenodd" stroke="none" />
    <path d="M10.0611 1.78249L24 20.2364C24 20.2364 18.8649 22.9829 11.7784 18.0584L8.71181 14.4742L0 0L10.0611 1.78249Z" transform="translate(211 110)" id="Shape" fill="#F6F8FB" fill-rule="evenodd" stroke="none" />
    <path d="M0.322562 4.67327L1.52556 4.64089C1.52556 4.64089 8.87574 -2.64492 10.6789 1.04116C12.4821 4.72724 6.10224 8.16506 6.10224 8.16506L4.16158 9.24444L1.6181 10L0 7.78188L0.322562 4.67327Z" transform="translate(217 117)" id="Shape" fill="#CC818C" fill-rule="evenodd" stroke="none" />
    <path d="M3.86384 5.26057C3.97794 5.72918 4.08662 6.24616 3.89644 6.68151C3.85255 6.79902 3.77265 6.89543 3.67094 6.9536C3.58512 6.99334 3.49158 7.00791 3.39925 6.99593C2.74496 6.93369 2.13621 6.59769 1.69577 6.05569C1.26106 5.51758 0.889504 4.92025 0.589998 4.27801C0.253105 3.628 -0.0973724 2.90242 0.0248872 2.16172C0.158014 1.35148 0.807348 0.78915 1.4268 0.347752C2.67928 -0.574346 2.70916 0.498916 2.99444 1.68404L3.86384 5.26057Z" transform="translate(216 121)" id="Shape" fill="#000000" fill-opacity="0.1" fill-rule="evenodd" stroke="none" />
    <path d="M3.86384 5.26057C3.97794 5.72918 4.08662 6.24616 3.89644 6.68151C3.85255 6.79902 3.77265 6.89543 3.67094 6.9536C3.58512 6.99334 3.49158 7.00791 3.39925 6.99593C2.74496 6.93369 2.13621 6.59769 1.69577 6.05569C1.26106 5.51758 0.889504 4.92025 0.589998 4.27801C0.253105 3.628 -0.0973724 2.90242 0.0248872 2.16172C0.158014 1.35148 0.807348 0.78915 1.4268 0.347752C2.67928 -0.574346 2.70916 0.498916 2.99444 1.68404L3.86384 5.26057Z" transform="translate(215 121)" id="Shape" fill="#67647E" fill-rule="evenodd" stroke="none" />
    <path d="M0 1.07671L1 0L0.124464 2L0 1.07671L0 1.07671Z" transform="translate(223 108)" id="Shape" fill="#000000" fill-opacity="0.1" fill-rule="evenodd" stroke="none" />
    <path d="M0 4.36916L1.40314 5L2 0.732087L0.646597 0C1.57068 1.054 0.76178 3.01142 0 4.36916Z" transform="translate(240 117)" id="Shape" fill="#000000" fill-opacity="0.1" fill-rule="evenodd" stroke="none" />
    <path d="M7 0.97359C7 0.97359 2.08438 1.25214 0 0" transform="translate(240 115)" id="Shape" fill="#000000" fill-opacity="0.1" fill-rule="evenodd" stroke="none" />
    <g id="Group" transform="translate(226 92)" opacity="0.1">
      <path d="M2.10325 26.2625C2.74133 25.1171 3.54303 24.072 4.48273 23.1605C4.70814 23.018 4.94197 22.8894 5.18291 22.7755L12.5675 21.252L12.9942 21.1585C12.9942 21.1585 13.0598 6.66875 7.95624 4.6805C5.09622 3.58377 2.4147 2.06467 0 0.17325L0.560684 0C0.560684 0 3.6212 2.69225 8.72205 4.675C13.8229 6.65775 13.7655 21.1585 13.7655 21.1585L12.9997 21.1585L5.44 22.6132L5.01333 23.023C4.06547 23.9761 3.25281 25.056 2.59829 26.2323C1.60048 28.0975 1.3735 30.2829 1.9665 32.3153L1.18427 32.3153C0.555214 30.0217 1.20342 27.896 2.10325 26.2625Z" transform="translate(18.160685 0.44275)" id="Shape" fill="#000000" fill-rule="evenodd" stroke="none" />
      <path d="M0 0.066C0.123077 0.044 0.240684 0.0183333 0.366496 0C0.884129 0.0980315 1.40558 0.155573 1.92821 0.172333C1.28441 0.196063 0.640164 0.160535 3.10938e-14 0.066L0 0.066Z" transform="translate(0.10940171 1.0835)" id="Shape" fill="#000000" fill-rule="evenodd" stroke="none" />
      <path d="M4.67145 2.618L0 0.25025C0.0969338 0.173435 0.188331 0.0898091 0.273504 0L5.14735 2.475L4.67145 2.618Z" transform="translate(6.263248 0.00275)" id="Shape" fill="#000000" fill-rule="evenodd" stroke="none" />
    </g>
    <path d="M15.0625 0L18.3011 3.94575L18.9613 14.6556C18.9613 14.6556 19.8113 20.1092 13.5438 18.7959C7.27624 17.4825 0 13.4071 0 13.4071C0 13.4071 3.50212 8.73983 1.58672 6.96707L10.5715 9.85874C10.5715 9.85874 12.0902 9.52899 10.9002 8.21561C9.71016 6.90224 9.50048 4.53479 9.50048 4.53479L15.0625 0Z" transform="translate(240 110)" id="Shape" fill="#67647E" fill-rule="evenodd" stroke="none" />
    <path d="M0 0L1 2C0.47561 1.7201 0.0878711 0.944622 1.80455e-14 0L0 0Z" transform="translate(255 121)" id="Shape" fill="#000000" fill-opacity="0.1" fill-rule="evenodd" stroke="none" />
    <path d="M0 0L3 3.65988L1.50153 4L0 0L0 0Z" transform="translate(252 120)" id="Shape" fill="#000000" fill-opacity="0.1" fill-rule="evenodd" stroke="none" />
    <path d="M0.137157 11.4952C-0.158477 10.767 0.0659856 9.92524 0.410891 9.2247C0.755797 8.52416 1.25126 7.88731 1.50583 7.14523C1.90275 6.03766 1.77956 4.79717 2.21206 3.70621C2.97031 1.79565 5.1246 0.937278 7.05717 0.292116C7.62654 0.10106 8.23423 -0.0927656 8.82002 0.0484501C9.59195 0.236738 10.1093 0.953892 10.7362 1.43292C13.3585 3.40994 17.6206 1.23355 20.1554 3.32687C21.1271 4.12709 21.598 5.41188 21.743 6.66897C21.8881 7.92607 21.743 9.20255 21.7293 10.4707C21.6883 12.6859 22.0961 15.117 23.7413 16.5873C24.2368 17.0303 24.8198 17.3654 25.3016 17.8222C25.7834 18.2791 26.1638 18.9298 26.079 19.5861C26.0109 19.8909 25.9194 20.19 25.8053 20.4804C25.4768 21.6378 25.964 22.8645 26.558 23.9084C28.3318 27.0096 31.4551 29.5653 35 29.6373C34.7618 31.4454 32.9059 32.4948 31.258 33.2369C29.1585 34.1811 26.9522 35.1087 24.6583 34.9896C22.3644 34.8706 19.972 33.3864 19.5641 31.1131C19.4245 30.3295 19.4437 29.3687 18.7703 28.9561C18.3651 28.7069 17.8396 28.7706 17.4016 28.5823C16.7693 28.3054 16.4545 27.6021 16.2464 26.9376C15.819 25.5716 15.5895 24.1502 15.5648 22.7177C15.5375 21.0204 15.7619 19.1679 14.8093 17.7696C13.9279 16.4765 12.3621 15.8314 11.3466 14.6297C10.4104 13.5221 9.38939 12.1985 7.85374 11.9881C5.78978 11.6863 1.3936 14.6075 0.137157 11.4952Z" transform="translate(226 66)" id="Shape" fill="#000000" fill-opacity="0.1" fill-rule="evenodd" stroke="none" />
    <path d="M0.137157 11.4952C-0.158477 10.767 0.0659856 9.92523 0.410891 9.2247C0.755797 8.52415 1.25126 7.8873 1.50583 7.14523C1.90275 6.03765 1.77956 4.79717 2.21206 3.70621C2.97031 1.79565 5.1246 0.937278 7.05717 0.292116C7.62654 0.10106 8.23423 -0.0927655 8.82002 0.0484501C9.59195 0.236738 10.1093 0.953891 10.7362 1.43292C13.3585 3.4127 17.6206 1.23355 20.1554 3.32687C21.1271 4.12986 21.598 5.41187 21.743 6.66897C21.8881 7.92606 21.743 9.20254 21.7293 10.4707C21.6883 12.6859 22.0961 15.117 23.7413 16.5873C24.2368 17.0303 24.8198 17.3654 25.3016 17.8222C25.7834 18.2791 26.1638 18.9298 26.079 19.586C26.0105 19.8917 25.919 20.1916 25.8053 20.4832C25.4768 21.6378 25.964 22.8672 26.558 23.9083C28.3318 27.0096 31.4551 29.5653 35 29.6373C34.7618 31.4454 32.9059 32.4948 31.258 33.2369C29.1585 34.1839 26.9522 35.1087 24.6583 34.9896C22.3644 34.8706 19.972 33.3864 19.5641 31.0993C19.4245 30.3157 19.4437 29.3548 18.7703 28.9423C18.3651 28.6931 17.8396 28.7567 17.4016 28.5685C16.7693 28.2916 16.4545 27.5883 16.2464 26.9237C15.819 25.5578 15.5895 24.1364 15.5648 22.7039C15.5375 21.0065 15.7619 19.1541 14.8093 17.7558C13.9279 16.4627 12.3621 15.8175 11.3466 14.6158C10.4104 13.5082 9.38939 12.1847 7.85374 11.9742C5.78978 11.7001 1.3936 14.6075 0.137157 11.4952Z" transform="translate(226 66)" id="Shape" fill="#585268" fill-rule="evenodd" stroke="none" />
    <path d="M1.79118 7L7 3.46047C7 3.46047 3.4348 1.8424 3.00879 0.461988C2.58278 -0.918428 -0.269386 1.1168 0.0206645 2.35563C0.310715 3.59447 1.79118 7 1.79118 7Z" transform="translate(230 91)" id="Shape" fill="#000000" fill-opacity="0.1" fill-rule="evenodd" stroke="none" />
    <path d="M1.79118 7L7 3.46047C7 3.46047 3.4348 1.8424 3.00879 0.461988C2.58278 -0.918428 -0.269386 1.1168 0.0206645 2.35563C0.310715 3.59447 1.79118 7 1.79118 7Z" transform="translate(230 91)" id="Shape" fill="#67647E" fill-rule="evenodd" stroke="none" />
    <path d="M0.5 1C0.776142 1 1 0.776142 1 0.5C1 0.223858 0.776142 0 0.5 0C0.223858 0 0 0.223858 0 0.5C0 0.776142 0.223858 1 0.5 1Z" transform="translate(237 97)" id="Oval" fill="#000000" fill-opacity="0.1" fill-rule="evenodd" stroke="none" />
    <path d="M0.5 1C0.776142 1 1 0.776142 1 0.5C1 0.223858 0.776142 0 0.5 0C0.223858 0 0 0.223858 0 0.5C0 0.776142 0.223858 1 0.5 1Z" transform="translate(237 100)" id="Oval" fill="#000000" fill-opacity="0.1" fill-rule="evenodd" stroke="none" />
    <path d="M0.5 1C0.776142 1 1 0.776142 1 0.5C1 0.223858 0.776142 0 0.5 0C0.223858 0 0 0.223858 0 0.5C0 0.776142 0.223858 1 0.5 1Z" transform="translate(237 102)" id="Oval" fill="#000000" fill-opacity="0.1" fill-rule="evenodd" stroke="none" />
    <g id="Group" transform="translate(226 69)" opacity="0.1">
      <path d="M0.499535 3.2331C0.87907 2.19862 0.79814 1.04 1.15256 0C0.990003 0.230626 0.854262 0.478628 0.747907 0.73931C0.306977 1.82621 0.429767 3.06759 0.027907 4.16828C0.027907 4.18759 0.00837209 4.20966 0 4.23172C0.196939 3.91459 0.364146 3.58032 0.499535 3.2331L0.499535 3.2331Z" transform="translate(1.6576744 0.008275862)" id="Shape" fill="#000000" fill-rule="evenodd" stroke="none" />
      <path d="M32.3826 23.4621C30.2421 24.4055 27.9928 25.3269 25.6514 25.2083C23.31 25.0897 20.8765 23.611 20.4607 21.3324C20.3184 20.5517 20.3379 19.5945 19.6514 19.1834C19.2384 18.9352 18.7025 18.9986 18.256 18.811C17.6086 18.5352 17.2905 17.8345 17.0784 17.1724C16.6421 15.8098 16.408 14.3918 16.3835 12.9628C16.3556 11.2717 16.5816 9.42621 15.6132 8.0331C14.7146 6.74483 13.1184 6.10207 12.083 4.90483C11.1258 3.80138 10.0877 2.48276 8.51929 2.2731C6.37046 1.99724 1.88581 4.89379 0.607666 1.7931C0.402767 1.20701 0.431711 0.565729 0.688597 0C0.596504 0.154483 0.507201 0.308966 0.426271 0.466207C0.0634803 1.16414 -0.165357 2.00276 0.147201 2.72828C1.42813 5.82897 5.90999 2.91862 8.06162 3.20828C9.6272 3.41793 10.6681 4.74483 11.6253 5.84C12.6607 7.02621 14.2542 7.68 15.1528 8.97103C16.1239 10.3503 15.8979 12.2097 15.9258 13.8979C15.9488 15.326 16.1819 16.7432 16.6179 18.1048C16.83 18.7641 17.1509 19.4841 17.7956 19.7434C18.2421 19.9283 18.7779 19.8676 19.1909 20.1159C19.8746 20.5241 19.8579 21.4952 19.9974 22.2621C20.4132 24.5407 22.8523 26.0221 25.1909 26.1407C27.5295 26.2593 29.7816 25.3352 31.9193 24.3917C33.4598 23.7159 35.176 22.7752 35.6365 21.2359C34.8886 22.2483 33.5826 22.9352 32.3826 23.4621Z" transform="translate(0.13465925 5.773793)" id="Shape" fill="#000000" fill-rule="evenodd" stroke="none" />
    </g>
  </g>
</svg>