<?xml version="1.0" encoding="utf-8"?>
<svg width="375px" height="241px" viewBox="0 0 375 241" version="1.1" xmlns:xlink="http://www.w3.org/1999/xlink" xmlns="http://www.w3.org/2000/svg">
  <desc>Created with Lunacy</desc>
  <g id="Group" transform="translate(-43 0.5)">
    <path d="M39.4078 23.1849C39.4078 23.1849 142.285 52.2375 230.733 15.8479C319.181 -20.5418 358.036 19.1891 384.838 4.59582C411.639 -9.99745 387.72 287.696 387.72 287.696L102.348 330L17.1204 287.696L0 117.232L39.4078 23.1849Z" transform="matrix(-1 0 0 1 399 14)" id="Path-2" fill="#0595D4" fill-opacity="0.2" fill-rule="evenodd" stroke="none" />
    <path d="M43.2597 25.4332C43.2597 25.4332 156.192 57.303 253.286 17.3846C350.379 -22.5337 393.032 21.0499 422.454 5.04148C451.875 -10.9669 425.617 315.594 425.617 315.594L112.352 362L18.7938 315.594L0 128.6L43.2597 25.4332Z" id="Path-2" fill="#0595D4" fill-rule="evenodd" stroke="none" />
  </g>
</svg>